<?xml version="1.0" encoding="utf-8"?>
<!-- Generator: Adobe Illustrator 16.0.0, SVG Export Plug-In . SVG Version: 6.00 Build 0)  -->
<!DOCTYPE svg PUBLIC "-//W3C//DTD SVG 1.1//EN" "http://www.w3.org/Graphics/SVG/1.1/DTD/svg11.dtd">
<svg version="1.1" id="Capa_1" xmlns="http://www.w3.org/2000/svg" xmlns:xlink="http://www.w3.org/1999/xlink" x="0px" y="0px"
	 width="346.957px" height="226.973px" viewBox="0 0 346.957 226.973" enable-background="new 0 0 346.957 226.973"
	 xml:space="preserve">
<g>
	<path fill="#101211" d="M85.201,105.665h7.198c1.833,0,3.276,0.504,4.195,1.418c0.711,0.713,1.082,1.583,1.082,2.667v0.044
		c0,1.916-1.104,2.958-2.296,3.576c1.879,0.639,3.189,1.714,3.189,3.894v0.043c0,2.863-2.366,4.405-5.938,4.405h-7.43V105.665z
		 M91.829,112.431c1.807,0,3.024-0.72,3.024-2.188V110.2c0-1.26-1.006-2.04-2.822-2.04h-4.056v4.27H91.829z M92.655,119.207
		c1.92,0,3.094-0.752,3.094-2.189v-0.051c0-1.35-1.08-2.154-3.302-2.154h-4.47v4.395H92.655z"/>
	<path fill="#101211" d="M100.845,117.308v-7.699h2.768v6.876c0,1.881,0.941,2.955,2.597,2.955c1.602,0,2.725-1.12,2.725-3.001
		v-6.831h2.772v12.104h-2.772v-1.877c-0.784,1.147-1.902,2.128-3.782,2.128C102.427,121.963,100.845,120.128,100.845,117.308"/>
	<path fill="#101211" d="M114.073,115.71v-0.05c0-3.464,2.455-6.306,5.92-6.306c3.846,0,5.794,3.024,5.794,6.516
		c0,0.251-0.023,0.493-0.041,0.778h-8.894c0.295,1.971,1.688,3.073,3.477,3.073c1.36,0,2.319-0.515,3.284-1.449l1.626,1.449
		c-1.145,1.371-2.726,2.269-4.949,2.269C116.782,121.991,114.073,119.441,114.073,115.71 M123.041,114.813
		c-0.186-1.786-1.24-3.19-3.071-3.19c-1.699,0-2.893,1.308-3.141,3.19H123.041z"/>
	<path fill="#101211" d="M128.135,109.609h2.768v1.878c0.789-1.146,1.91-2.133,3.787-2.133c2.727,0,4.308,1.836,4.308,4.658v7.7
		h-2.772v-6.879c0-1.875-0.94-2.958-2.588-2.958c-1.607,0-2.734,1.128-2.734,3.004v6.833h-2.768V109.609z"/>
	<path fill="#101211" d="M141.227,115.725v-0.04c0-3.46,2.751-6.327,6.467-6.327c3.71,0,6.441,2.82,6.441,6.279v0.048
		c0,3.439-2.75,6.305-6.483,6.305C143.96,121.99,141.227,119.167,141.227,115.725 M151.362,115.725v-0.04
		c0-2.136-1.534-3.899-3.708-3.899c-2.23,0-3.652,1.744-3.652,3.851v0.048c0,2.11,1.54,3.898,3.694,3.898
		C149.941,119.583,151.362,117.818,151.362,115.725"/>
	<path fill="#101211" d="M155.518,120.128l1.237-1.881c1.313,0.989,2.728,1.494,3.966,1.494c1.188,0,1.885-0.504,1.885-1.311v-0.042
		c0-0.941-1.287-1.26-2.709-1.699c-1.788-0.503-3.785-1.232-3.785-3.55v-0.045c0-2.292,1.908-3.698,4.313-3.698
		c1.51,0,3.167,0.529,4.445,1.379l-1.098,1.979c-1.167-0.717-2.405-1.152-3.418-1.152c-1.081,0-1.696,0.502-1.696,1.217v0.045
		c0,0.866,1.31,1.235,2.726,1.692c1.765,0.556,3.754,1.357,3.754,3.534v0.048c0,2.539-1.964,3.805-4.485,3.805
		C158.932,121.943,157.029,121.323,155.518,120.128"/>
	<path fill="#101211" d="M179.933,105.55h2.62l7.061,16.163h-2.983l-1.623-3.88h-7.585l-1.655,3.88h-2.891L179.933,105.55z
		 M183.971,115.342l-2.768-6.426l-2.75,6.426H183.971z"/>
	<path fill="#101211" d="M191.637,105.116h2.979v2.638h-2.979V105.116z M191.75,109.609h2.774v12.104h-2.774V109.609z"/>
	<path fill="#101211" d="M197.689,109.609h2.779v2.73c0.751-1.814,2.149-3.048,4.28-2.97v2.946h-0.153
		c-2.431,0-4.127,1.579-4.127,4.792v4.604h-2.779V109.609z"/>
	<path fill="#101211" d="M205.632,115.71v-0.05c0-3.464,2.447-6.306,5.907-6.306c3.852,0,5.804,3.024,5.804,6.516
		c0,0.251-0.024,0.493-0.05,0.778h-8.887c0.287,1.971,1.692,3.073,3.477,3.073c1.359,0,2.316-0.515,3.277-1.449l1.628,1.449
		c-1.142,1.371-2.726,2.269-4.946,2.269C208.332,121.991,205.632,119.441,205.632,115.71 M214.593,114.813
		c-0.186-1.786-1.24-3.19-3.07-3.19c-1.703,0-2.894,1.308-3.141,3.19H214.593z"/>
	<path fill="#101211" d="M218.699,120.128l1.242-1.881c1.3,0.989,2.722,1.494,3.959,1.494c1.194,0,1.881-0.504,1.881-1.311v-0.042
		c0-0.941-1.28-1.26-2.704-1.699c-1.788-0.503-3.779-1.232-3.779-3.55v-0.045c0-2.292,1.901-3.698,4.308-3.698
		c1.51,0,3.165,0.529,4.445,1.379l-1.102,1.979c-1.168-0.717-2.403-1.152-3.415-1.152c-1.069,0-1.694,0.502-1.694,1.217v0.045
		c0,0.866,1.309,1.235,2.727,1.692c1.763,0.556,3.765,1.357,3.765,3.534v0.048c0,2.539-1.978,3.805-4.501,3.805
		C222.117,121.943,220.21,121.323,218.699,120.128"/>
	<path fill="#101211" d="M236.727,113.731v-0.041c0-4.561,3.415-8.296,8.273-8.296c2.956,0,4.748,1.03,6.283,2.491l-1.815,2.085
		c-1.28-1.191-2.656-1.989-4.491-1.989c-3.071,0-5.292,2.525-5.292,5.668v0.041c0,3.135,2.221,5.707,5.292,5.707
		c1.972,0,3.229-0.802,4.606-2.089l1.813,1.836c-1.672,1.737-3.51,2.846-6.514,2.846
		C240.214,121.99,236.727,118.346,236.727,113.731"/>
	<path fill="#101211" d="M253.63,105.116h2.981v2.638h-2.981V105.116z M253.741,109.609h2.774v12.104h-2.774V109.609z"/>
	<path fill="#101211" d="M259.545,117.308v-7.699h2.77v6.876c0,1.881,0.939,2.955,2.594,2.955c1.605,0,2.728-1.12,2.728-3.001
		v-6.831h2.771v12.104h-2.771v-1.877c-0.777,1.147-1.898,2.128-3.783,2.128C261.128,121.963,259.545,120.128,259.545,117.308"/>
	<path fill="#101211" d="M272.825,115.685v-0.048c0-4.014,2.725-6.279,5.612-6.279c1.999,0,3.257,1.005,4.126,2.126v-6.512h2.774
		v16.745h-2.774v-2.022c-0.888,1.263-2.153,2.271-4.126,2.271C275.596,121.964,272.825,119.693,272.825,115.685 M282.61,115.685
		v-0.048c0-2.342-1.65-3.875-3.508-3.875c-1.902,0-3.484,1.468-3.484,3.875v0.048c0,2.343,1.61,3.875,3.484,3.875
		C280.962,119.56,282.61,117.997,282.61,115.685"/>
	<path fill="#101211" d="M295.754,121.713v-1.498c-0.827,0.993-2.082,1.748-3.921,1.748c-2.298,0-4.31-1.303-4.31-3.734v-0.045
		c0-2.685,2.089-3.97,4.907-3.97c1.466,0,2.407,0.202,3.351,0.503v-0.226c0-1.673-1.062-2.589-2.988-2.589
		c-1.346,0-2.355,0.293-3.456,0.756l-0.759-2.225c1.331-0.595,2.638-1.005,4.604-1.005c3.579,0,5.322,1.878,5.322,5.109v7.175
		L295.754,121.713L295.754,121.713z M295.822,116.646c-0.711-0.282-1.696-0.479-2.774-0.479c-1.744,0-2.77,0.711-2.77,1.88v0.043
		c0,1.144,1.023,1.787,2.332,1.787c1.835,0,3.212-1.029,3.212-2.541V116.646L295.822,116.646z"/>
	<path fill="#101211" d="M300.734,115.685v-0.048c0-4.014,2.726-6.279,5.613-6.279c1.998,0,3.26,1.005,4.13,2.126v-6.512h2.776
		v16.745h-2.776v-2.022c-0.893,1.263-2.158,2.271-4.13,2.271C303.508,121.964,300.734,119.693,300.734,115.685 M310.525,115.685
		v-0.048c0-2.342-1.655-3.875-3.507-3.875c-1.909,0-3.488,1.468-3.488,3.875v0.048c0,2.343,1.604,3.875,3.488,3.875
		C308.871,119.56,310.525,117.997,310.525,115.685"/>
	<path fill="#101211" d="M54.062,96.749c-0.139,0-0.243,0.104-0.243,0.23c0,0.136,0.104,0.24,0.243,0.24
		c0.122,0,0.225-0.104,0.225-0.24C54.287,96.854,54.184,96.749,54.062,96.749"/>
	<path fill="#101211" d="M65.939,100.385l-0.043-0.007c-1.228-0.045-2.391-0.491-3.522-0.919c-0.462-0.17-0.937-0.347-1.404-0.499
		c-0.925-0.293-1.753-0.457-2.528-0.495c-0.201-0.008-0.394-0.016-0.587-0.016c-0.53,0-1.257,0.054-1.714,0.486
		c-0.129-0.569-0.286-1.211-0.53-1.822c-0.231-0.588-0.573-1.277-1.196-1.469l-0.309-0.041c-0.61,0-1.078,0.55-1.312,0.874
		l-0.098,0.151c-0.266,0.392-0.405,0.586-0.367,0.762c0.048,0.187,0.263,0.33,0.768,0.611c0.217,0.121,0.257,0.445,0.28,0.669
		l0.008,0.031c0.047,0.348,0.063,0.691,0.063,1.014c-0.71-0.733-1.8-1.021-2.783-1.204c-0.263-0.052-0.537-0.076-0.817-0.076
		c-1.136,0-2.239,0.422-2.971,0.74c-0.415,0.179-0.832,0.378-1.231,0.572c-0.771,0.375-1.572,0.756-2.4,1.013
		c-0.256,0.076-0.521,0.139-0.855,0.197h-0.009h-0.024l-0.023,0.005c-0.125,0.021-0.338,0.091-0.382,0.284
		c-0.038,0.193-0.017,0.324,0.251,0.531c0.606,0.34,1.34,0.504,2.244,0.504c0.191,0,0.385,0,0.587-0.015
		c0.272-0.016,0.552-0.052,0.842-0.088c0.416-0.054,0.841-0.11,1.251-0.11c0.289,0,0.531,0.027,0.756,0.081
		c0.675,0.154,1.075,0.822,1.43,1.411c0.087,0.147,0.165,0.284,0.255,0.417l0.002,0.008c0.168,0.253,0.442,0.662,0.423,0.968
		c-0.016,0.301-0.433,0.553-0.73,0.73l-0.219,0.141l-0.324,0.212c-0.671,0.428-1.594,1.02-1.491,1.812
		c0.049,0.383,0.376,0.702,0.767,0.755l0.114,0.008c0.275,0,0.54-0.136,0.778-0.26l0.312-0.15c0.318-0.131,0.646-0.2,0.965-0.2
		c0.544,0,1.072,0.187,1.554,0.549c0.166,0.119,0.301,0.266,0.442,0.408c0.155,0.147,0.31,0.301,0.479,0.43
		c0.147,0.105,0.411,0.205,0.631,0.205c0.225,0,0.373-0.104,0.415-0.301c0.077-0.392,0.071-0.806,0.071-1.198
		c-0.005-0.324-0.005-0.653,0.038-0.963c0.023-0.194,0.075-0.586,0.321-0.708l0.294-0.053c0.124,0,0.26,0.019,0.392,0.036
		c0.17,0.032,0.36,0.06,0.516,0.041c0.71-0.102,1.311-0.684,1.593-1.569c0.131-0.298,0.286-0.422,0.593-0.498
		c0.355-0.089,0.581-0.384,0.8-0.671l0.162-0.203c0.451-0.533,0.995-0.771,1.766-0.771c0.145,0,0.295,0.012,0.463,0.024
		c0.159,0.019,0.317,0.038,0.476,0.058c0.414,0.043,0.811,0.089,1.211,0.089c0.427,0,0.813-0.06,1.166-0.171
		c0.93-0.315,1.743-0.91,2.496-1.514l0.106-0.091c0.208-0.173,0.265-0.292,0.2-0.488C66.299,100.436,66.039,100.396,65.939,100.385
		 M49.966,103.135c-0.184-0.299-0.375-0.614-0.605-0.894c-0.54-0.659-1.256-0.946-2.328-0.946c-0.445,0-0.921,0.049-1.378,0.096
		c-0.445,0.05-0.912,0.099-1.349,0.099c-0.232,0-0.443-0.017-0.636-0.038c0.77-0.26,1.514-0.614,2.228-0.953
		c0.765-0.373,1.567-0.761,2.394-1.017c0.519-0.156,1.051-0.237,1.602-0.237c0.989,0,1.914,0.26,2.66,0.755
		c0.624,0.415,0.809,0.851,0.601,1.462c-0.226,0.652-0.617,1.288-1.157,1.902l-0.12,0.138c-0.242,0.281-0.627,0.751-0.956,0.751
		l-0.281-0.134C50.372,103.827,50.159,103.472,49.966,103.135 M56.229,104.052c-0.077,0.541-0.289,1.003-0.622,1.3
		c-0.289,0.271-0.61,0.324-1.037,0.324h-0.226l-0.228-0.006c-0.277,0-0.503,0.098-0.679,0.273c-0.518,0.52-0.509,1.66-0.497,2.416
		v0.252l-0.05-0.055c-0.657-0.601-1.259-1.176-2.179-1.318c-0.141-0.021-0.29-0.025-0.443-0.025c-0.274,0-0.57,0.035-0.867,0.109
		c-0.261,0.06-0.48,0.166-0.717,0.27l-0.271,0.118l-0.351,0.091l-0.053-0.015v-0.049c0.09-0.31,0.422-0.529,0.694-0.706l0.07-0.052
		c0.681-0.46,1.317-0.919,1.952-1.405c1.153-0.902,2.423-2.023,3.051-3.543c0.356-0.853,0.51-1.837,0.442-2.844v-0.056
		c-0.029-0.415-0.052-0.843-0.216-1.216c-0.139-0.316-0.385-0.465-0.642-0.617l-0.145-0.079c0.12-0.223,0.465-0.827,0.849-0.827
		c0.15,0,0.297,0.087,0.434,0.275c0.457,0.631,0.663,1.384,0.852,2.046c0.029,0.117,0.067,0.243,0.104,0.373
		C55.822,100.37,56.431,102.524,56.229,104.052 M64.119,101.612c-0.627,0.36-1.192,0.524-1.728,0.524h-0.05
		c-0.344-0.002-0.693-0.054-1.039-0.097c-0.292-0.041-0.6-0.075-0.895-0.092c-0.736-0.036-1.31,0.083-1.768,0.355
		c-0.314,0.19-0.543,0.464-0.757,0.727c-0.153,0.192-0.318,0.386-0.508,0.551l-0.206,0.103H57.16
		c-0.089-0.004-0.089-0.053-0.089-0.179v-0.082c-0.011-0.28-0.047-0.558-0.09-0.817l-0.015-0.155
		c-0.064-0.464-0.137-0.963-0.25-1.441l-0.087-0.292c-0.13-0.422-0.297-0.955,0.027-1.23c0.199-0.163,0.546-0.196,0.769-0.218
		c0,0,0.263-0.018,0.547-0.024h0.101c0.309,0,0.635,0.021,0.949,0.062c0.587,0.074,1.199,0.234,1.942,0.477
		c0.396,0.133,0.8,0.281,1.19,0.43c0.899,0.333,1.833,0.684,2.799,0.853C64.651,101.292,64.377,101.467,64.119,101.612"/>
	<path fill="#101211" d="M74.129,108.787c-0.263-1.714-0.688-3.393-1.266-5.029c-0.55-1.566-1.243-3.081-2.078-4.52
		c-0.647-1.113-1.381-2.181-2.199-3.175c-1.043-1.277-2.222-2.443-3.526-3.449c-1.274-0.979-2.66-1.809-4.131-2.445
		c-1.47-0.632-3.031-1.057-4.609-1.272c-1.613-0.208-3.262-0.186-4.866,0.067c-1.576,0.243-3.118,0.715-4.571,1.375
		c-1.459,0.676-2.833,1.537-4.08,2.552c-1.281,1.024-2.431,2.21-3.449,3.501c-1.002,1.264-1.871,2.635-2.605,4.072
		c-0.761,1.499-1.38,3.064-1.858,4.677c-0.491,1.677-0.835,3.406-1.02,5.156c-0.193,1.806-0.217,3.635-0.078,5.457
		c0.13,1.759,0.417,3.511,0.862,5.215c0.427,1.64,1.005,3.242,1.723,4.77c0.693,1.474,1.525,2.877,2.482,4.183
		c1.083,1.477,3.825,4.078,3.835,4.078c3.245,2.644,7.168,4.216,11.403,4.216h0.007c1.612,0,3.218-0.234,4.771-0.686
		c1.542-0.446,3.007-1.103,4.369-1.938c1.392-0.838,2.667-1.854,3.816-3.01c1.15-1.147,2.176-2.422,3.06-3.785
		c0.898-1.37,1.658-2.838,2.274-4.358c0.652-1.584,1.145-3.231,1.491-4.919c0.363-1.745,0.564-3.529,0.607-5.315
		C74.539,112.389,74.423,110.574,74.129,108.787 M38.021,120.602H37.5l0.463-1.769c0.046-0.127,0.075-0.115,0.089-0.066
		C38.043,119.402,38.031,120.021,38.021,120.602 M38.279,115.789l-1.049-0.487l0.016-0.039h2.237l0.009,0.039l-1,0.487H38.279z
		 M36.968,114.802l1.167-0.826c-0.007,0.269-0.012,0.542-0.015,0.826H36.968z M37.358,111.996h1.995l0.011,0.051l-0.895,0.415
		l-0.191,0.008l-0.932-0.431L37.358,111.996z M37.107,111.59l1.076-0.707c-0.006,0.221-0.006,0.46-0.016,0.707H37.107z
		 M38.558,110.891l1.066,0.699h-1.058C38.566,111.358,38.561,111.119,38.558,110.891 M38.607,113.977l1.179,0.825h-1.165
		C38.612,114.522,38.61,114.244,38.607,113.977 M38.718,120.602c-0.01-0.581-0.021-1.2-0.03-1.828
		c0.004-0.046,0.038-0.072,0.078,0.054l0.473,1.775L38.718,120.602L38.718,120.602z M54.1,136.427c-3.109,0-6.046-0.94-8.63-2.613
		c2.006-0.017,3.999,0.251,5.977,0.544c1.985,0.299,3.97,0.63,5.967,0.829c0.771,0.083,1.542,0.137,2.312,0.165
		C57.949,136.055,56.064,136.427,54.1,136.427 M63.224,133.486c-1.975,0.199-3.961,0.112-5.927-0.102
		c-1.965-0.214-3.918-0.546-5.871-0.83c-2.023-0.292-4.052-0.547-6.091-0.531c-0.692,0.012-1.38,0.048-2.066,0.107
		c-0.645-0.566-1.262-1.188-1.849-1.859c2.043-0.302,4.125-0.298,6.184-0.156c2.068,0.161,4.116,0.46,6.161,0.766
		c1.033,0.153,2.061,0.303,3.087,0.444c0.516,0.065,2.554,0.223,3.052,0.216c2.055,0,4.12-0.149,6.157-0.485
		C65.178,131.975,64.23,132.781,63.224,133.486 M67.905,128.868c-1.976,0.477-3.995,0.731-6.02,0.833
		c-1.008,0.054-2.034,0.087-3.049,0.025c-1.02-0.042-2.038-0.207-3.05-0.357c-2.04-0.291-4.084-0.617-6.136-0.846
		c-2.043-0.229-4.1-0.353-6.161-0.253c-1.116,0.056-2.233,0.187-3.335,0.4c-0.376-0.528-0.733-1.072-1.071-1.644
		c1.814-0.373,3.654-0.617,5.501-0.684c1.878-0.065,3.751,0.066,5.611,0.305c1.797,0.232,3.577,0.568,5.372,0.81
		c1.647,0.221,3.302,0.367,4.955,0.367h0.011c1.718,0,3.436-0.148,5.139-0.421c1.236-0.207,2.477-0.463,3.685-0.78
		C68.914,127.41,68.426,128.159,67.905,128.868 M40.523,122.558c-0.864-0.563-0.979-1.494-0.93-1.674l2.66-6.266h0.066
		L40.523,122.558z M42.284,116.646c-0.042,2.813-0.076,5.427-0.089,6.676c-0.489-0.146-0.963-0.293-1.384-0.584l1.41-6.216
		L42.284,116.646z M41.582,111.15h1.995l0.004,0.047l-0.894,0.423l-0.188,0.003l-0.932-0.427L41.582,111.15z M41.331,110.749
		l1.05-0.699c0,0.223,0,0.456-0.007,0.699H41.331z M42.802,110.065l1.041,0.685h-1.032
		C42.808,110.507,42.808,110.282,42.802,110.065 M44.934,119.262c-0.03,1.352-0.064,2.687-0.083,3.728l-0.035,0.024l-0.89-3.876
		l0.475-1.133L44.934,119.262z M44.579,117.577l0.355-0.843l0.07,0.008c-0.012,0.541-0.029,1.121-0.047,1.713L44.579,117.577z
		 M43.694,119.663l0.86,3.527c-0.303,0.122-0.675,0.191-1.002,0.234l-0.35,0.031l-0.212,0.01c-0.003-0.469-0.017-1.189-0.025-2.067
		L43.694,119.663z M42.953,120.566c-0.017-1.168-0.034-2.527-0.058-3.94c0.011-0.106,0.033-0.191,0.093-0.021l0.582,2.497
		L42.953,120.566z M43.796,118.58l-0.913-3.952l0.064-0.01l1.269,2.959L43.796,118.58z M45.539,119.813v-0.58
		c-0.026-1.029-0.054-1.508-0.078-2.455l0.082-0.035l1.584,3.964c-0.262,0.513-0.303,0.695-0.707,1.121L45.539,119.813z
		 M46.16,122.078c-0.153,0.188-0.368,0.355-0.549,0.503c-0.016-0.539-0.038-1.238-0.05-1.872L46.16,122.078z M47.777,120.559
		l1.815-3.895c-0.033,1.117-0.07,2.726-0.106,3.895h-0.741C48.472,120.559,48.045,120.584,47.777,120.559 M60.769,115.568h2.62
		l0.035,0.05l-1.196,0.569l-0.248,0.002l-1.229-0.563L60.769,115.568z M60.468,115.046l1.365-0.978c0,0.288-0.004,0.943-0.004,0.978
		H60.468z M60.959,111.177l0.044-0.004h2.193l0.044,0.002h0.006l-0.006,0.002l-0.035,0.042l-0.983,0.458l-0.2,0.005l-1.021-0.462
		L60.959,111.177z M60.728,110.713l1.168-0.84c0,0.27-0.008,0.546-0.011,0.84H60.728z M62.305,109.887l1.187,0.826h-1.169
		C62.317,110.421,62.309,110.156,62.305,109.887 M62.363,114.07l1.362,0.978h-1.344C62.381,114.731,62.369,114.388,62.363,114.07
		 M66.335,113.01h2.239l0.013,0.049l-1.01,0.478h-0.207l-1.04-0.478L66.335,113.01z M66.057,112.559l1.17-0.84
		c-0.003,0.277-0.009,0.554-0.009,0.84H66.057z M67.691,111.719l1.192,0.84h-1.181C67.702,112.277,67.697,111.996,67.691,111.719
		 M67.175,116.547c-0.041,2.715-0.08,5.627-0.112,7.687c-0.661,0.22-1.233,0.283-1.736,0.239l1.114-4.983l0.657-2.932
		L67.175,116.547z M67.021,115.379l-1.942,8.629l-0.849-2.318l0.013-0.011l2.66-6.387C66.975,115.162,67.05,115.076,67.021,115.379
		 M64.872,124.407c-0.614-0.137-1.099-0.439-1.464-0.76l0.636-1.511L64.872,124.407z M63.164,123.413
		c-0.375-0.399-0.595-0.801-0.677-0.968c-0.017-1.312-0.044-3.251-0.075-5.356l1.471,4.567L63.164,123.413z M59.957,122.356h-3.213
		l4.784-5.4L59.957,122.356z M61.79,117.089c-0.019,1.224-0.059,5.117-0.059,5.267h-1.436L61.79,117.089z M67.756,116.54
		l0.069,0.019l1.341,5.797c-0.29,0.677-0.881,1.18-1.315,1.479C67.842,122.772,67.756,116.565,67.756,116.54 M69.511,122.32
		l-1.643-6.877c-0.046-0.417,0.061-0.26,0.145-0.106l2.999,6.984L69.511,122.32L69.511,122.32z M72.184,118.967
		c-0.217,1.1-0.511,2.181-0.861,3.239l-3.591-8.522l1.577-0.702c0.165-0.08,0.165-0.311,0.008-0.4l-1.636-1.165l-0.036-2.611
		c0.197-0.024,0.373-0.11,0.561-0.138c0.208-0.03,0.403,0,0.612,0.046c0.19,0.022,0.38,0.045,0.559-0.008
		c0.177-0.052,0.332-0.15,0.466-0.26c-0.408-0.01-0.74-0.272-1.104-0.434c-0.184-0.083-0.38-0.138-0.581-0.159
		c-0.19-0.012-0.429-0.027-0.617,0.021c-0.02-0.144-0.032-0.302-0.066-0.475h-0.081c-0.119,0.711-0.115,1.5-0.125,2.219
		c-0.007,0.512-0.013,1.02-0.02,1.528l-0.005,0.271l-1.625,1.165c-0.154,0.081-0.157,0.315,0,0.4l1.535,0.702l-3.097,7.522
		l-1.59-4.84l1.764-0.828c0.179-0.096,0.19-0.367,0.008-0.461c0,0-1.661-1.167-1.88-1.318c-0.004-0.614-0.023-1.275-0.023-1.856
		l1.612-0.757v-0.004c0.159-0.075,0.167-0.307,0.006-0.392c0,0-1.447-1.028-1.655-1.185c-0.019-1.184-0.031-2.373-0.047-3.547
		l0.275-0.06l0.305-0.085c0.208-0.03,0.411-0.004,0.611,0.041c0.196,0.028,0.399,0.051,0.587,0c0.171-0.053,0.322-0.146,0.468-0.263
		c-0.41-0.008-0.74-0.267-1.103-0.432c-0.177-0.083-0.379-0.133-0.575-0.158c-0.202-0.017-0.425-0.033-0.617,0.024
		c-0.019-0.152-0.043-0.31-0.07-0.482h-0.077c-0.115,0.659-0.12,1.316-0.133,1.982c0,0.601-0.003,1.208-0.01,1.812
		c-0.007,0.391-0.011,0.786-0.019,1.168l-1.64,1.181c-0.161,0.082-0.161,0.315,0,0.396l1.604,0.761h0.006
		c-0.006,0.575-0.017,1.25-0.026,1.855l-1.877,1.314c-0.19,0.093-0.19,0.371,0,0.466l1.732,0.828l-5.405,5.988
		c-0.103,0-0.779,0.007-0.875,0.131c-0.135,0.111-0.142,0.282-0.082,0.43c0.082,0.192,0.242,0.325,0.425,0.431l0.285,0.14
		l0.037,0.031c0,0,0.48,1.614,2.566,2.369h-0.006l0.042,0.061l-0.02,0.021l-0.047,0.012c-1.989-0.122-3.943-0.448-5.907-0.76
		c-0.752-0.12-1.5-0.233-2.253-0.324c-0.502-0.067-1.015-0.132-1.517-0.218l-0.086-0.063v-0.006v-0.016l0.028-0.035l0.013-0.017
		c2.762-0.82,3.348-2.832,3.348-2.832l0.101-0.058l0.219-0.106c0.176-0.103,0.344-0.242,0.423-0.431
		c0.062-0.156,0.052-0.322-0.086-0.439c-0.107-0.132-0.882-0.126-0.882-0.126l-0.006,0.002h-0.136c0-0.433-0.011-1.543-0.04-2.268
		l0.258-0.013l0.309-0.086c0.213-0.062,0.419-0.036,0.635,0c0.206,0.038,0.41,0.07,0.62,0.017c0.185-0.049,0.349-0.147,0.494-0.266
		c-0.415-0.016-0.761-0.287-1.126-0.442c-0.194-0.081-0.396-0.137-0.604-0.151c-0.203-0.017-0.451-0.034-0.629,0.052
		c-0.011-0.173-0.032-0.319-0.044-0.426h-0.08c-0.105,0.614-0.105,2.759-0.115,3.584l-1.39,0.007
		c-0.04-1.509-0.105-3.532-0.144-4.824l1.208-2.575c0.156,0.075,0.35,0.089,0.519,0.148c0.188,0.062,0.342,0.176,0.497,0.296
		c0.145,0.121,0.292,0.249,0.468,0.301c0.196,0.069,0.404,0.055,0.601,0.024c-0.34-0.211-0.504-0.587-0.724-0.893
		c-0.113-0.172-0.26-0.306-0.417-0.421c-0.162-0.127-0.366-0.255-0.561-0.301c0.043-0.142,0.106-0.336,0.109-0.424l-0.032-0.064
		l-0.024-0.005l-0.1,0.092c-0.112,0.134-0.254,0.387-0.28,0.433l-1.28,2.746c-0.011-0.432-0.024-0.87-0.03-1.304
		c0-0.539-0.026-1.083-0.115-1.62h-0.082c-0.108,0.65-0.108,1.308-0.126,1.977c0,0.59-0.021,1.19-0.038,1.788l-2.207,4.575
		l-1.977-4.853c-0.015-0.599-0.031-1.198-0.037-1.802c-0.011-0.681-0.011-1.364-0.122-2.038h-0.08
		c-0.116,0.667-0.116,1.336-0.127,2.008c0,0.609-0.027,1.216-0.041,1.832l-0.632,1.498l-1.541-3.608
		c-0.01-0.595-0.017-1.187-0.028-1.76l1.412-0.667c0.139-0.065,0.147-0.272,0-0.354c0,0-1.191-0.853-1.441-1.029
		c-0.018-1.238-0.029-2.483-0.051-3.72l0.269-0.06l0.309-0.085c0.211-0.03,0.403-0.004,0.61,0.041c0.196,0.028,0.391,0.051,0.586,0
		c0.178-0.053,0.332-0.146,0.469-0.263c-0.398-0.008-0.736-0.256-1.075-0.42c-0.187-0.087-0.378-0.14-0.579-0.17
		c-0.203-0.017-0.438-0.036-0.64,0.024c-0.011-0.163-0.036-0.327-0.061-0.49h-0.083c-0.134,0.799-0.118,1.59-0.127,2.391
		c-0.006,0.781-0.02,1.545-0.032,2.318c-0.004,0.15-0.004,0.288-0.004,0.432l-1.434,1.028c-0.147,0.069-0.147,0.279,0,0.354
		l1.404,0.667c-0.01,0.645-0.023,1.685-0.023,1.76l-2.866,6.734l-0.419-1.552h0.371h0.182l0.239-0.058l0.183-0.132l-0.166-0.133
		l-0.256-0.06H38.94l-0.279-1.064c-0.015-0.438-0.018-0.879-0.027-1.313l1.583-0.736c0.165-0.084,0.165-0.322,0.006-0.403
		l-1.625-1.146c-0.004-0.315-0.014-0.749-0.016-1.041l1.422-0.667c0.144-0.079,0.147-0.282,0.007-0.361c0,0-1.266-0.909-1.466-1.049
		c-0.011-1.031-0.021-1.727-0.027-1.802c0.164,0.014,0.35-0.078,0.5-0.117c0.183-0.03,0.356-0.015,0.535,0.018
		c0.17,0.033,0.349,0.053,0.519,0.021c0.168-0.047,0.315-0.136,0.445-0.239c-0.364-0.01-0.661-0.246-0.977-0.383
		c-0.165-0.075-0.342-0.121-0.521-0.134c-0.175-0.022-0.384-0.04-0.551,0.026c-0.017-0.135-0.04-0.275-0.067-0.429h-0.073
		c-0.114,0.571-0.118,1.142-0.122,1.713c-0.006,0.499-0.013,0.836-0.026,1.326l-1.457,1.049c-0.149,0.068-0.149,0.283,0,0.361
		l1.422,0.667c0,0.292-0.006,0.729-0.014,1.041l-1.599,1.141c-0.164,0.081-0.164,0.323-0.002,0.4l1.566,0.745
		c-0.004,0.434-0.018,0.868-0.029,1.3l-0.28,1.078h-0.655l-0.24,0.056l-0.181,0.137l0.165,0.13l0.255,0.06h0.181h0.006h0.37
		l-0.496,1.874h-0.791c-0.478-1.81-0.77-3.658-0.868-5.521c-0.107-1.863-0.029-3.739,0.232-5.588
		c0.248-1.714,0.647-3.408,1.222-5.044c0.541-1.557,1.231-3.064,2.072-4.482c0.442-0.746,0.924-1.468,1.459-2.158
		c2.144,0.72,4.917,0.061,4.917,0.061c2.499-0.452,4.06-0.38,4.964-0.246l0.48,0.088c0.054-0.313,0.091-0.524,0.186-0.815
		c-2.621-0.829-5.562-0.43-5.562-0.43c-1.783,0.165-2.869-0.193-3.431-0.504c0,0,1.133-1.196,2.043-1.859
		c0.809,0.584,1.827,0.868,2.778,1.037c0.628,0.111,1.272,0.165,1.893,0.302c0.635,0.145,1.271,0.334,1.88,0.549
		c0.22,0.075,0.509,0.215,0.636,0.278c0.12-0.254,0.276-0.494,0.445-0.718l-0.411-0.258c-0.806-0.466-1.569-0.697-2.42-0.96
		c-0.572-0.169-1.118-0.372-1.65-0.645c-0.725-0.376-1.176-0.86-1.216-0.888c0,0,1.237-0.767,2.411-1.201
		c0.54,0.771,1.548,1.201,2.233,1.785c0.973,0.826,1.491,1.607,1.536,1.688c0.226-0.173,0.438-0.295,0.73-0.405
		c-0.386-0.853-0.939-1.827-1.601-2.445c-0.302-0.277-0.76-0.773-0.884-1.254c0,0,1.56-0.39,2.757-0.411l0.451,3.935
		c0.166-0.031,0.413-0.028,0.413-0.028s0.162-0.003,0.421,0.028l0.443-3.93c0,0,1.063,0.044,1.924,0.213
		c0.479,0.096,0.841,0.194,0.841,0.194c-0.136,0.472-0.577,0.979-0.875,1.253c-0.673,0.628-1.201,1.583-1.583,2.447
		c0.225,0.101,0.476,0.207,0.72,0.406c0.452-0.674,1.008-1.252,1.523-1.69c0.675-0.582,1.681-1.041,2.222-1.785
		c0.135,0.052,0.748,0.284,1.713,0.777l0.714,0.415c-0.015,0.016-0.817,0.675-1.219,0.897c-0.516,0.298-1.075,0.476-1.645,0.645
		c-0.859,0.264-1.615,0.495-2.427,0.96l-0.411,0.248c0.162,0.205,0.317,0.444,0.453,0.717c0.14-0.065,0.419-0.195,0.627-0.267
		c0.615-0.216,1.246-0.404,1.885-0.549c0.615-0.139,1.256-0.191,1.89-0.302c0.942-0.164,1.968-0.469,2.768-1.037
		c1.013,0.786,2.045,1.862,2.045,1.862c-0.57,0.31-1.656,0.667-3.424,0.501c0,0-2.942-0.398-5.556,0.422
		c0.083,0.248,0.115,0.42,0.168,0.793l0.52-0.083c0.924-0.127,2.45-0.181,4.941,0.27c0,0,2.756,0.651,4.907-0.061
		c0.215,0.277,0.416,0.562,0.618,0.853c0.924,1.333,1.695,2.772,2.323,4.26c0.664,1.574,1.161,3.208,1.513,4.882
		c0.364,1.755,0.557,3.556,0.572,5.35C72.742,115.101,72.563,117.057,72.184,118.967"/>
</g>
</svg>
