<?xml version="1.0" encoding="utf-8"?>
<!-- Generator: Adobe Illustrator 16.0.0, SVG Export Plug-In . SVG Version: 6.00 Build 0)  -->
<!DOCTYPE svg PUBLIC "-//W3C//DTD SVG 1.1//EN" "http://www.w3.org/Graphics/SVG/1.1/DTD/svg11.dtd">
<svg version="1.1" id="Capa_1" xmlns="http://www.w3.org/2000/svg" xmlns:xlink="http://www.w3.org/1999/xlink" x="0px" y="0px"
	 width="20px" height="20px" viewBox="0 0 20 20" enable-background="new 0 0 20 20" xml:space="preserve">
<path fill="#FFFFFF" d="M11.854,1.914h1.418c0.299,0,0.56,0.11,0.777,0.328c0.219,0.221,0.328,0.479,0.328,0.777
	c0,0.024,0,0.048,0,0.071l-0.033,1.59c0,0.323-0.104,0.589-0.311,0.795c-0.207,0.207-0.473,0.312-0.795,0.312h-1.072v1.106h1.66
	c0.367,0,0.668,0.15,0.898,0.449c0.229,0.3,0.285,0.622,0.172,0.968l-0.381,1.66c-0.068,0.23-0.201,0.421-0.396,0.57
	c-0.196,0.149-0.421,0.226-0.674,0.226h-1.314v7.19c0,0.299-0.104,0.56-0.311,0.778c-0.207,0.218-0.473,0.328-0.795,0.328h-1.66
	c-0.299,0-0.56-0.109-0.777-0.328c-0.22-0.219-0.328-0.479-0.328-0.778v-7.19H7.188c-0.323,0-0.587-0.108-0.795-0.329
	c-0.207-0.219-0.312-0.479-0.312-0.778v-1.66c0-0.298,0.104-0.557,0.312-0.777C6.6,7.003,6.864,6.893,7.188,6.893H8.26V5.405
	c0-1.358,0.518-2.351,1.556-2.972c0.553-0.347,1.187-0.52,1.9-0.52C11.762,1.914,11.809,1.914,11.854,1.914z M11.129,3.091
	c-0.208,0.046-0.456,0.137-0.744,0.274C10.097,3.504,9.854,3.752,9.66,4.11C9.463,4.468,9.365,4.899,9.365,5.405v2.593H7.188v1.66
	h2.178v8.298h1.659V9.658h2.42l0.382-1.66h-2.769V5.372V5.197c0.022-0.114,0.099-0.229,0.227-0.345
	C11.41,4.737,11.59,4.68,11.82,4.68h1.418l0.033-1.66H11.82h-0.104C11.531,3.02,11.336,3.044,11.129,3.091z"/>
</svg>
