<?xml version="1.0" encoding="utf-8"?>
<!-- Generator: Adobe Illustrator 16.0.0, SVG Export Plug-In . SVG Version: 6.00 Build 0)  -->
<!DOCTYPE svg PUBLIC "-//W3C//DTD SVG 1.1//EN" "http://www.w3.org/Graphics/SVG/1.1/DTD/svg11.dtd">
<svg version="1.1" id="Capa_1" xmlns="http://www.w3.org/2000/svg" xmlns:xlink="http://www.w3.org/1999/xlink" x="0px" y="0px"
	 width="20px" height="20px" viewBox="0 0 20 20" enable-background="new 0 0 20 20" xml:space="preserve">
<g>
	<path fill="#FFFFFF" d="M14.291,0.422H5.707c-2.914,0-5.285,2.371-5.285,5.286v8.584c0,2.914,2.371,5.285,5.285,5.285h8.584
		c2.916,0,5.287-2.371,5.287-5.285V5.708C19.578,2.793,17.207,0.422,14.291,0.422z M18.204,14.471c0,2.061-1.675,3.734-3.735,3.734
		h-8.94c-2.059,0-3.736-1.676-3.736-3.734V5.531c0-2.06,1.678-3.734,3.736-3.734h8.939c2.062,0,3.735,1.675,3.735,3.734
		L18.204,14.471L18.204,14.471z"/>
	<path fill="#FFFFFF" d="M9.999,5.065c-2.722,0-4.935,2.215-4.935,4.937c0,2.721,2.213,4.936,4.935,4.936
		c2.724,0,4.937-2.215,4.937-4.936C14.936,7.28,12.723,5.065,9.999,5.065z M9.999,13.693c-2.036,0-3.692-1.656-3.692-3.692
		c0-2.037,1.656-3.694,3.692-3.694s3.692,1.657,3.692,3.694C13.691,12.037,12.035,13.693,9.999,13.693z"/>
	<path fill="#FFFFFF" d="M15.143,3.624c-0.326,0-0.647,0.133-0.881,0.365c-0.23,0.229-0.365,0.553-0.365,0.882
		c0,0.327,0.135,0.648,0.365,0.881c0.231,0.231,0.555,0.365,0.881,0.365c0.328,0,0.65-0.134,0.881-0.365
		c0.234-0.232,0.365-0.554,0.365-0.881c0-0.329-0.131-0.651-0.365-0.882C15.793,3.756,15.471,3.624,15.143,3.624z"/>
</g>
</svg>
