<?xml version="1.0" encoding="utf-8"?>
<!-- Generator: Adobe Illustrator 16.0.0, SVG Export Plug-In . SVG Version: 6.00 Build 0)  -->
<!DOCTYPE svg PUBLIC "-//W3C//DTD SVG 1.1//EN" "http://www.w3.org/Graphics/SVG/1.1/DTD/svg11.dtd">
<svg version="1.1" id="Capa_1" xmlns="http://www.w3.org/2000/svg" xmlns:xlink="http://www.w3.org/1999/xlink" x="0px" y="0px"
	 width="565px" height="153px" viewBox="0 13.5 565 153" enable-background="new 0 13.5 565 153" xml:space="preserve">
<g>
	<g>
		<path fill="#FFFFFF" d="M136.384,50.47l-8.007,9.98c-5.916-6.385-14.383-10.326-22.621-10.326c-16.237,0-29,12.529-29,28.535
			c0,16.012,12.763,28.652,29,28.652c8.121,0,16.475-3.711,22.621-9.629l8.118,9.049c-8.231,8.121-19.947,13.342-31.434,13.342
			c-23.781,0-42.225-17.979-42.225-41.297c0-23.086,18.677-40.834,42.689-40.834C117.012,37.942,128.494,42.699,136.384,50.47z"/>
		<path fill="#FFFFFF" d="M228.03,78.892c0,23.203-18.791,41.182-43.037,41.182s-43.035-17.979-43.035-41.182
			c0-23.316,18.789-40.949,43.035-40.949S228.03,55.69,228.03,78.892z M155.876,78.892c0,16.125,13.341,28.887,29.234,28.887
			c15.892,0,28.883-12.762,28.883-28.887c0-16.127-12.991-28.65-28.883-28.65C169.104,50.241,155.876,62.765,155.876,78.892z"/>
		<path fill="#FFFFFF" d="M269.396,38.175c24.358,0,41.989,17.051,41.989,40.602c0,23.432-17.748,40.602-42.34,40.602h-32.944
			V38.175H269.396z M249.789,107.081h19.952c15.776,0,27.84-11.717,27.84-28.189c0-16.588-12.413-28.422-28.42-28.422h-19.372
			V107.081z"/>
		<path fill="#FFFFFF" d="M333.393,50.47v21.926h28.971V84.69h-28.971v22.391h36.787v12.297h-50.477V38.175h58V50.47H333.393z"/>
		<path fill="#FFFFFF" d="M34.413,86.431v20.301h-8.699V86.431H5.182v-9.166h20.532V56.968h8.699v20.297H54.83v9.166H34.413z"/>
		<path fill="#FFFFFF" d="M376.506,119.378h22.438c3.441,0,6.232-2.795,6.232-6.232l0,0c0-3.445-2.791-6.236-6.232-6.236h-22.438"/>
		<path fill="#FFFFFF" d="M411.298,112.782c0,3.641,2.953,6.596,6.598,6.596h5.903c3.643,0,6.595-2.955,6.595-6.596l0,0
			c0-3.643-2.952-6.594-6.595-6.594h-5.903C414.251,106.188,411.298,109.14,411.298,112.782L411.298,112.782z"/>
		<path fill="#FFFFFF" d="M370.013,84.685h30.767c3.452,0,6.251-2.799,6.251-6.254l0,0c0-3.451-2.799-6.25-6.251-6.25h-30.767
			V84.685z"/>
		<path fill="#FFFFFF" d="M412.401,78.583c0,3.531,2.865,6.398,6.402,6.398h26.499c3.536,0,6.398-2.867,6.398-6.398l0,0
			c0-3.533-2.862-6.402-6.398-6.402h-26.499C415.267,72.181,412.401,75.05,412.401,78.583L412.401,78.583z"/>
		<path fill="#FFFFFF" d="M385.54,50.585h34.079c3.426,0,6.205-2.779,6.205-6.205l0,0c0-3.428-2.779-6.205-6.205-6.205H385.54
			V50.585z"/>
	</g>
	<g>
		<path fill="#69F0AE" d="M342.321,27.96c-0.374-5.711,4.861-6.833,9.349-5.881l-0.17,4.012c-1.598-0.408-3.943-0.408-3.841,1.869
			h3.808v4.658h-3.876v13.53h-5.338v-13.53H339.5V27.96H342.321z"/>
		<path fill="#69F0AE" d="M374.075,39.009h-13.19c0.646,1.7,2.312,2.55,3.943,2.584c1.189,0,2.312-0.408,3.094-1.258h5.813
			c-1.428,4.08-5.304,6.085-9.18,6.018c-4.657-0.103-9.28-3.229-9.28-9.451c0-6.323,4.793-9.451,9.587-9.417
			c4.726,0.034,9.417,3.162,9.417,9.417C374.279,37.649,374.211,38.329,374.075,39.009z M368.432,34.827
			c-0.51-1.835-2.006-2.686-3.739-2.686c-1.599,0-3.061,0.884-3.604,2.686H368.432z"/>
		<path fill="#69F0AE" d="M386.69,27.314c3.944,0,7.378,2.006,7.412,6.289h-5.134c-0.034-1.428-1.462-1.529-2.584-1.529
			c-0.782,0-1.87,0.271-1.87,1.258c0,0.951,1.429,0.985,2.21,1.02c3.842,0.102,7.751,1.734,7.751,6.086
			c0,4.623-3.773,6.187-7.853,6.187c-4.386,0-7.718-1.972-7.785-6.663h5.371c0.034,1.224,1.326,1.734,2.55,1.734
			c1.394,0.033,2.346-0.477,2.346-1.122c0-1.326-2.04-1.156-2.924-1.224c-3.468-0.307-7.071-1.633-7.071-5.678
			C379.109,29.218,382.577,27.314,386.69,27.314z"/>
		<path fill="#69F0AE" d="M407.635,46.454c-4.114,0.034-6.596-1.869-6.596-6.663V32.55h-2.414v-4.59h2.414v-3.501l5.338-0.477v3.978
			h3.841v4.59h-3.841v7.241c0,1.632,1.189,2.142,2.481,2.142c0.51,0,1.054-0.067,1.529-0.17l0.17,4.42
			C409.504,46.353,408.519,46.454,407.635,46.454z"/>
		<path fill="#69F0AE" d="M418.651,20.583c1.632-0.034,3.331,0.986,3.331,3.128c0,1.972-1.529,2.957-3.093,2.991
			c-1.633,0.034-3.332-0.952-3.332-2.991C415.558,21.671,417.087,20.617,418.651,20.583z M416.067,27.756v18.393h5.439V27.756
			H416.067z"/>
		<path fill="#69F0AE" d="M437.248,33.638l2.312-5.882h5.541v0.851l-6.969,17.61h-4.386l-6.97-17.61v-0.851h5.576l2.277,5.882
			l1.326,4.691L437.248,33.638z"/>
		<path fill="#69F0AE" d="M462.271,29.66v-1.904h5.338v18.393h-5.338v-1.836c-1.258,1.564-3.06,2.074-4.827,2.074
			c-5.848,0-8.873-4.691-8.84-9.758c0.068-5.031,2.958-9.179,8.907-9.179C459.313,27.45,461.082,28.13,462.271,29.66z
			 M462.271,36.833c0-2.447-1.87-4.453-4.182-4.453c-2.72,0-4.079,2.142-4.113,4.386c-0.034,2.21,1.359,4.487,4.113,4.487
			C460.401,41.253,462.271,39.281,462.271,36.833z"/>
		<path fill="#69F0AE" d="M478.626,22.351v23.798h-5.439V22.351H478.626z"/>
		<path fill="#69F0AE" d="M353.744,83.422v-7.241h5.338v23.968h-5.338v-1.836c-1.258,1.564-3.06,2.074-4.827,2.074
			c-5.848,0-8.873-4.691-8.84-9.758c0.068-5.031,2.958-9.179,8.907-9.179C350.786,81.45,352.521,82.028,353.744,83.422z
			 M353.744,90.833c0-2.447-1.87-4.453-4.182-4.453c-2.72,0-4.079,2.142-4.113,4.386c-0.034,2.21,1.359,4.487,4.113,4.487
			C351.874,95.253,353.744,93.281,353.744,90.833z"/>
		<path fill="#69F0AE" d="M383.085,93.009h-13.19c0.646,1.7,2.312,2.55,3.943,2.584c1.189,0,2.312-0.408,3.094-1.258h5.813
			c-1.428,4.08-5.304,6.085-9.18,6.018c-4.657-0.103-9.28-3.229-9.28-9.451c0-6.323,4.793-9.451,9.587-9.417
			c4.726,0.034,9.417,3.162,9.417,9.417C383.289,91.649,383.221,92.329,383.085,93.009z M377.441,88.827
			c-0.51-1.835-2.006-2.686-3.739-2.686c-1.599,0-3.061,0.884-3.604,2.686H377.441z"/>
		<path fill="#69F0AE" d="M413.039,83.66v-1.904h5.338v18.393h-5.338v-1.836c-1.258,1.564-3.06,2.074-4.827,2.074
			c-5.848,0-8.873-4.691-8.84-9.758c0.068-5.031,2.958-9.179,8.907-9.179C410.081,81.45,411.85,82.13,413.039,83.66z
			 M413.039,90.833c0-2.447-1.87-4.453-4.182-4.453c-2.72,0-4.079,2.142-4.113,4.386c-0.034,2.21,1.359,4.487,4.113,4.487
			C411.169,95.253,413.039,93.281,413.039,90.833z"/>
		<path fill="#69F0AE" d="M429.496,100.148h-5.338V81.756h4.828l0.204,1.225c1.189-1.122,2.516-1.598,4.012-1.598
			c0.646,0,1.359,0.102,2.073,0.271l-0.068,5.031c-0.544-0.17-1.189-0.271-1.802-0.271c-1.938,0.034-3.909,1.054-3.909,3.535
			V100.148z"/>
		<path fill="#69F0AE" d="M448.773,100.454c-4.114,0.034-6.596-1.869-6.596-6.663V86.55h-2.414v-4.59h2.414v-3.501l5.338-0.477
			v3.978h3.841v4.59h-3.841v7.241c0,1.632,1.189,2.142,2.481,2.142c0.51,0,1.054-0.067,1.529-0.17l0.17,4.42
			C450.643,100.353,449.657,100.454,448.773,100.454z"/>
		<path fill="#69F0AE" d="M474.375,93.009h-13.19c0.646,1.7,2.312,2.55,3.943,2.584c1.189,0,2.312-0.408,3.094-1.258h5.813
			c-1.428,4.08-5.304,6.085-9.18,6.018c-4.657-0.103-9.28-3.229-9.28-9.451c0-6.323,4.793-9.451,9.587-9.417
			c4.726,0.034,9.417,3.162,9.417,9.417C474.579,91.649,474.511,92.329,474.375,93.009z M468.731,88.827
			c-0.51-1.835-2.006-2.686-3.739-2.686c-1.599,0-3.06,0.884-3.604,2.686H468.731z"/>
		<path fill="#69F0AE" d="M358.844,147.009h-13.19c0.646,1.7,2.312,2.55,3.943,2.584c1.189,0,2.312-0.408,3.094-1.258h5.813
			c-1.428,4.08-5.304,6.085-9.18,6.018c-4.657-0.103-9.28-3.229-9.28-9.451c0-6.323,4.793-9.451,9.587-9.417
			c4.726,0.034,9.417,3.162,9.417,9.417C359.048,145.649,358.979,146.329,358.844,147.009z M353.2,142.827
			c-0.51-1.835-2.006-2.686-3.739-2.686c-1.599,0-3.06,0.884-3.604,2.686H353.2z"/>
		<path fill="#69F0AE" d="M369.997,130.351v23.798h-5.439v-23.798H369.997z"/>
		<path fill="#69F0AE" d="M393.829,147.009h-13.19c0.646,1.7,2.312,2.55,3.943,2.584c1.189,0,2.312-0.408,3.094-1.258h5.813
			c-1.428,4.08-5.304,6.085-9.18,6.018c-4.657-0.103-9.28-3.229-9.28-9.451c0-6.323,4.793-9.451,9.587-9.417
			c4.726,0.034,9.417,3.162,9.417,9.417C394.033,145.649,393.965,146.329,393.829,147.009z M388.186,142.827
			c-0.51-1.835-2.006-2.686-3.739-2.686c-1.599,0-3.061,0.884-3.604,2.686H388.186z"/>
		<path fill="#69F0AE" d="M417.697,146.329c-1.529,11.287-18.527,10.505-18.527-1.394c0-11.899,17.032-12.681,18.527-1.36h-5.303
			c-1.36-4.556-7.989-3.841-7.989,1.36s6.595,5.949,7.989,1.394H417.697z"/>
		<path fill="#69F0AE" d="M430.755,154.454c-4.114,0.034-6.596-1.869-6.596-6.663v-7.241h-2.414v-4.59h2.414v-3.501l5.338-0.477
			v3.978h3.841v4.59h-3.841v7.241c0,1.632,1.189,2.142,2.481,2.142c0.51,0,1.054-0.067,1.529-0.17l0.171,4.42
			C432.624,154.353,431.639,154.454,430.755,154.454z"/>
		<path fill="#69F0AE" d="M444.287,154.148h-5.338v-18.393h4.828l0.204,1.225c1.189-1.122,2.516-1.598,4.012-1.598
			c0.646,0,1.359,0.102,2.073,0.271l-0.068,5.031c-0.544-0.17-1.189-0.271-1.802-0.271c-1.938,0.034-3.909,1.054-3.909,3.535
			V154.148z"/>
		<path fill="#69F0AE" d="M454.385,144.97c0-13.123,19.616-13.089,19.616,0C474.001,158.058,454.385,157.99,454.385,144.97z
			 M468.63,144.97c0-6.256-8.873-6.222-8.873,0C459.757,151.123,468.63,151.156,468.63,144.97z M470.159,128.821l-3.909,4.182
			h-4.386v-0.782l2.142-3.773h6.153V128.821z"/>
		<path fill="#69F0AE" d="M484.338,135.756v1.836c1.292-1.632,3.468-2.107,5.439-2.107c5.235,0.068,6.663,3.943,6.629,8.533v10.131
			h-5.439v-10.097c0-2.482-1.394-3.604-2.855-3.604c-1.598,0-3.502,1.359-3.502,3.705v9.995h-5.677v-18.393H484.338z"/>
		<path fill="#69F0AE" d="M505.011,128.583c1.632-0.034,3.331,0.986,3.331,3.128c0,1.972-1.529,2.957-3.093,2.991
			c-1.633,0.034-3.332-0.952-3.332-2.991C501.917,129.671,503.446,128.617,505.011,128.583z M502.427,135.756v18.393h5.439v-18.393
			H502.427z"/>
		<path fill="#69F0AE" d="M531.63,146.329c-1.529,11.287-18.527,10.505-18.527-1.394c0-11.899,17.032-12.681,18.527-1.36h-5.303
			c-1.36-4.556-7.989-3.841-7.989,1.36s6.595,5.949,7.989,1.394H531.63z"/>
		<path fill="#69F0AE" d="M536.052,144.97c0-13.123,19.616-13.089,19.616,0C555.668,158.058,536.052,157.99,536.052,144.97z
			 M550.297,144.97c0-6.256-8.873-6.222-8.873,0C541.424,151.123,550.297,151.156,550.297,144.97z"/>
	</g>
</g>
</svg>
