<?xml version="1.0" encoding="utf-8"?>
<!-- Generator: Adobe Illustrator 16.0.0, SVG Export Plug-In . SVG Version: 6.00 Build 0)  -->
<!DOCTYPE svg PUBLIC "-//W3C//DTD SVG 1.1//EN" "http://www.w3.org/Graphics/SVG/1.1/DTD/svg11.dtd">
<svg version="1.1" id="Capa_1" xmlns="http://www.w3.org/2000/svg" xmlns:xlink="http://www.w3.org/1999/xlink" x="0px" y="0px"
	 width="121.375px" height="24.25px" viewBox="0 0 121.375 24.25" enable-background="new 0 0 121.375 24.25" xml:space="preserve">
<path fill="#3B3B3B" d="M35.629,4.882l-2.113,2.632c-1.561-1.684-3.795-2.725-5.969-2.725c-4.286,0-7.653,3.307-7.653,7.531
	s3.367,7.562,7.653,7.562c2.143,0,4.347-0.979,5.969-2.542l2.143,2.389c-2.172,2.143-5.264,3.521-8.295,3.521
	c-6.275,0-11.143-4.744-11.143-10.897c0-6.092,4.928-10.776,11.266-10.776C30.517,1.575,33.547,2.83,35.629,4.882z"/>
<path fill="#3B3B3B" d="M59.693,12.381c0,6.124-4.959,10.868-11.357,10.868s-11.357-4.744-11.357-10.868
	c0-6.152,4.959-10.806,11.357-10.806S59.693,6.26,59.693,12.381z M40.652,12.381c0,4.256,3.52,7.623,7.715,7.623
	c4.192,0,7.621-3.367,7.621-7.623S52.56,4.82,48.367,4.82C44.143,4.82,40.652,8.125,40.652,12.381z"/>
<path fill="#3B3B3B" d="M70.609,1.637c6.428,0,11.081,4.5,11.081,10.715c0,6.183-4.684,10.714-11.173,10.714h-8.694V1.637H70.609z
	 M65.436,19.82H70.7c4.164,0,7.347-3.092,7.347-7.439c0-4.377-3.275-7.499-7.5-7.499h-5.111V19.82z"/>
<path fill="#3B3B3B" d="M88.238,4.882v5.786h7.646v3.244h-7.646v5.908h9.709v3.245H84.626V1.637h15.306v3.245H88.238z"/>
<path fill="#3B3B3B" d="M9.339,14.371v5.357H7.043v-5.357H1.625v-2.419h5.418V6.596h2.296v5.356h5.388v2.419H9.339z"/>
<path fill="#4849F5" d="M99.615,23.065h5.922c0.908,0,1.646-0.737,1.646-1.644l0,0c0-0.91-0.737-1.646-1.646-1.646h-5.922"/>
<path fill="#69F0AE" d="M108.798,21.325c0,0.96,0.78,1.74,1.741,1.74h1.558c0.962,0,1.74-0.78,1.74-1.74l0,0
	c0-0.96-0.778-1.741-1.74-1.741h-1.558C109.578,19.584,108.798,20.365,108.798,21.325L108.798,21.325z"/>
<path fill="#8E24AA" d="M97.902,13.91h8.12c0.911,0,1.649-0.738,1.649-1.65l0,0c0-0.911-0.738-1.649-1.649-1.649h-8.12V13.91z"/>
<path fill="#FFDF55" d="M109.09,12.3c0,0.933,0.756,1.689,1.688,1.689h6.993c0.934,0,1.689-0.757,1.689-1.689l0,0
	c0-0.933-0.756-1.689-1.689-1.689h-6.993C109.846,10.61,109.09,11.367,109.09,12.3L109.09,12.3z"/>
<path fill="#FF2FAC" d="M102,4.911h8.993c0.905,0,1.638-0.733,1.638-1.638l0,0c0-0.904-0.732-1.637-1.638-1.637H102V4.911z"/>
</svg>
