<?xml version="1.0" encoding="utf-8"?>
<!-- Generator: Adobe Illustrator 17.0.0, SVG Export Plug-In . SVG Version: 6.00 Build 0)  -->
<!DOCTYPE svg PUBLIC "-//W3C//DTD SVG 1.1//EN" "http://www.w3.org/Graphics/SVG/1.1/DTD/svg11.dtd">
<svg version="1.1" id="Capa_1" xmlns="http://www.w3.org/2000/svg" xmlns:xlink="http://www.w3.org/1999/xlink" x="0px" y="0px"
	 width="346.957px" height="226.972px" viewBox="0 0 346.957 226.972" enable-background="new 0 0 346.957 226.972"
	 xml:space="preserve">
<g>
	<path fill="#6FB0C4" d="M178.082,99.923l-17.07-0.02v21.832c0,5.377,1.792,6.941,4.699,6.941c2.69,0,4.366-1.234,5.598-2.48
		l0.01,10.972c0,0-0.678,1.364-6.724,1.364c-8.846,0-14.891-4.482-14.891-17.018V99.903h-6.343v-9.516h6.343V76.439h11.31v13.948
		h17.113"/>
	<path fill="#6FB0C4" d="M95.863,113.898c0-13.995,11.193-24.517,25.41-24.517c14.333,0,25.303,10.522,25.303,24.517
		c0,14-10.972,24.52-25.303,24.52C107.056,138.415,95.863,127.896,95.863,113.898 M134.933,113.898
		c0-8.618-5.262-14.663-13.66-14.663s-13.767,6.045-13.767,14.663c0,8.623,5.37,14.778,13.767,14.778
		S134.933,122.521,134.933,113.898"/>
	<path fill="#6FB0C4" d="M179.314,90.364h11.313l-0.113,8.848c3.133-7.387,8.508-9.741,13.655-9.741c3.358,0,8.23,1.154,11.03,3.801
		c0,0-2.865,2.682-3.841,3.693c-1.506,1.556-3.441,4.694-3.441,4.694c-1.792-0.898-3.411-1.556-5.98-1.556
		c-6.721,0-11.31,3.921-11.31,14.448v23.541h-11.313V99.525"/>
	<path fill="#6FB0C4" d="M206.311,113.898c0-13.995,11.203-24.517,25.413-24.517c14.325,0,25.295,10.522,25.295,24.517
		c0,14-10.972,24.52-25.295,24.52C217.513,138.415,206.311,127.896,206.311,113.898 M245.383,113.898
		c0-8.618-5.265-14.663-13.66-14.663c-8.4,0-13.772,6.045-13.772,14.663c0,8.623,5.37,14.778,13.772,14.778
		C240.121,128.676,245.383,122.521,245.383,113.898"/>
	<path fill="#6FB0C4" d="M253.448,128.676l7.727-5.377c2.908,4.144,7.272,6.053,12.654,6.053c5.708,0,8.28-1.909,8.28-5.042
		c0-3.806-3.471-4.361-11.418-6.606c-6.944-1.902-13.885-5.15-13.885-14.441c0-9.409,7.497-13.885,16.793-13.885
		c7.502,0,12.767,3.133,16.352,7.051l-6.608,6.493c-2.242-2.572-5.487-4.592-9.746-4.592c-4.246,0-6.598,1.569-6.598,4.369
		c0,3.583,2.908,4.364,10.297,6.268c7.384,1.909,15.449,4.817,15.449,14.776c0,8.067-4.932,14.668-18.254,14.668
		C263.745,138.415,256.581,133.711,253.448,128.676"/>
	<path fill="#6FB0C4" d="M94.424,114.271c-0.03-2.858,0.706-5.888,0.706-5.888H81.042V89.358h-11.33v19.025H54.213v11.773h15.499
		v18.282h11.33v-18.282H95.13C95.13,120.159,94.457,117.213,94.424,114.271z"/>
</g>
</svg>
