<?xml version="1.0" encoding="utf-8"?>
<!-- Generator: Adobe Illustrator 17.0.0, SVG Export Plug-In . SVG Version: 6.00 Build 0)  -->
<!DOCTYPE svg PUBLIC "-//W3C//DTD SVG 1.1//EN" "http://www.w3.org/Graphics/SVG/1.1/DTD/svg11.dtd">
<svg version="1.1" id="Capa_1" xmlns="http://www.w3.org/2000/svg" xmlns:xlink="http://www.w3.org/1999/xlink" x="0px" y="0px"
	 width="346.957px" height="226.972px" viewBox="0 0 346.957 226.972" enable-background="new 0 0 346.957 226.972"
	 xml:space="preserve">
<g>
	<path fill="#264369" d="M188.83,137.387c0.075-0.005,0.123-0.007,0.179,0h24.245c0.237,0,0.425-0.186,0.425-0.421v-6.363
		c0-0.233-0.188-0.423-0.425-0.423h-22.95c-0.3,0-0.544-0.244-0.544-0.544V95.583h-6.787c-0.551,0-0.998,0.447-0.998,0.998v33.717
		c0,0,0.005,0.025,0.007,0.053l-0.003,0.139C181.976,134.315,185.052,137.387,188.83,137.387"/>
	<path fill="#264369" d="M259.657,130.128h-29.074c-0.3,0-0.546-0.246-0.546-0.547v-9.697h19.193c0.107,0,0.195-0.126,0.195-0.29
		v-6.215c0-0.16-0.088-0.29-0.195-0.29h-19.193v-9.698c0-0.298,0.246-0.542,0.546-0.542h28.96c0.232,0,0.425-0.188,0.425-0.423
		v-6.421c0-0.233-0.193-0.421-0.425-0.421h-36.289c-0.553,0-1,0.447-1,0.998V130.3c0.004,0,0.005,0.025,0.009,0.053l-0.005,0.139
		c-0.004,3.753,2.902,6.759,6.614,6.887c0.032,0,0.067,0.005,0.097,0.011h30.692c0.235,0,0.423-0.186,0.423-0.421v-6.421
		C260.078,130.316,259.891,130.128,259.657,130.128"/>
	<g>
		<path fill="#264369" d="M279.598,108.257c0.019,0.026,0.042,0.047,0.068,0.075l0,0l0.046,0.056
			c0.025,0.032,0.051,0.065,0.077,0.098c3.325,4.02,10.439,7.017,14.49,7.017c0.03,0,0.06-0.004,0.086-0.004l0.019-0.002
			c0.186-0.004,0.354-0.114,0.432-0.283c0.079-0.167,0.053-0.37-0.067-0.512l-11.492-13.959l-2.957-3.406
			c-0.786-0.948-2.113-1.662-3.088-1.662h-5.64c-0.733,0-1.005,0.409-1.088,0.586c-0.221,0.467-0.056,1.07,0.461,1.695
			L279.598,108.257z"/>
		<path fill="#264369" d="M298.142,115.501l0.028,0.002c0.032,0,0.056,0.005,0.089,0.005c4.048,0,11.165-2.999,14.49-7.019
			c0.025-0.033,0.053-0.067,0.075-0.098l0.047-0.061c0.025-0.023,0.047-0.046,0.063-0.068l8.658-10.298
			c0.519-0.623,0.679-1.227,0.46-1.693c-0.084-0.177-0.354-0.586-1.091-0.586h-5.636c-0.976,0-2.302,0.714-3.083,1.656l-2.965,3.416
			l-11.49,13.953c-0.118,0.142-0.146,0.346-0.068,0.512C297.799,115.386,297.97,115.497,298.142,115.501"/>
		<path fill="#264369" d="M321.59,135.074l-8.654-10.295c-0.019-0.025-0.04-0.047-0.065-0.072h-0.002l-0.044-0.056
			c-0.025-0.035-0.053-0.067-0.077-0.1c-3.325-4.02-10.442-7.019-14.49-7.019c-0.033,0-0.058,0.004-0.088,0.005l-0.016,0.002
			c-0.184,0.002-0.354,0.112-0.435,0.281c-0.077,0.168-0.051,0.37,0.068,0.514l11.493,13.955l2.958,3.409
			c0.783,0.948,2.111,1.66,3.087,1.66h5.636c0.737,0,1.007-0.411,1.091-0.588C322.271,136.301,322.111,135.701,321.59,135.074"/>
		<path fill="#264369" d="M294.395,117.536l-0.028-0.002c-0.03-0.002-0.058-0.005-0.089-0.005c-4.048,0-11.165,2.999-14.49,7.019
			c-0.026,0.032-0.053,0.065-0.077,0.1l-0.047,0.056c-0.025,0.025-0.046,0.047-0.063,0.07l-8.656,10.3
			c-0.518,0.625-0.683,1.225-0.461,1.693c0.082,0.177,0.356,0.586,1.088,0.586h5.64c0.976,0,2.302-0.714,3.083-1.655l2.965-3.42
			l11.49-13.95c0.118-0.144,0.144-0.344,0.067-0.514C294.737,117.648,294.569,117.538,294.395,117.536"/>
	</g>
	<path fill="#264369" d="M70.18,95.583h-5.885c-0.56,0-1.016,0.456-1.016,1.019v34.008c-6.503-8.372-24.231-31.615-25.11-32.603
		c-2.116-2.381-4.631-2.536-6.993-2.381c-2.888,0.19-6.368,2.586-6.368,6.968v33.734c0,0.562,0.454,1.016,1.014,1.016h5.885
		c0.56,0,1.014-0.454,1.014-1.016v-34.013c6.501,8.373,24.231,31.616,25.112,32.606c2.118,2.381,4.631,2.534,6.993,2.381
		c2.887-0.19,6.368-2.588,6.368-6.97V96.602C71.195,96.039,70.739,95.583,70.18,95.583z"/>
	<path fill="#264369" d="M100.984,94.537c-12.12,0-21.948,9.826-21.948,21.95c0,12.12,9.826,21.948,21.948,21.948
		s21.95-9.828,21.95-21.948C122.933,104.365,113.105,94.537,100.984,94.537z M100.984,131.303c-8.182,0-14.819-6.633-14.819-14.817
		s6.635-14.819,14.819-14.819c8.182,0,14.817,6.633,14.817,14.819C115.802,124.671,109.166,131.303,100.984,131.303z"/>
	<path fill="#264369" d="M165.857,115.525c-0.186-0.093-0.304-0.281-0.304-0.486c0-0.207,0.116-0.397,0.302-0.491l0.06-0.032
		c0.004-0.002,0.007-0.002,0.012-0.005c1.462-0.919,3.89-3.157,3.89-7.831c0-2.574-0.693-4.732-2.125-6.592
		c-3.567-4.506-9.895-4.506-13.673-4.506h-21.041c-0.551,0-0.998,0.447-0.998,0.998v33.717c0.002,0,0.007,0.025,0.007,0.053
		l-0.004,0.139c-0.002,3.743,3.008,6.817,6.708,6.893c0.028,0.002,0.054,0.004,0.081,0.007h15.25c4.541,0,10.193,0,14.018-3.227
		c2.42-2.02,3.809-5.162,3.809-8.624C171.851,122.318,170.809,117.968,165.857,115.525z M139.766,103.102
		c0-0.3,0.244-0.546,0.544-0.546h17.17c2.713,0,5.462,2.2,5.462,4.913c0,2.713-2.748,4.913-5.462,4.913h-17.17
		c-0.3,0-0.544-0.244-0.544-0.546C139.766,111.837,139.766,103.102,139.766,103.102z M158.865,130.414H140.31
		c-0.3,0-0.544-0.244-0.544-0.546v-10.026c0-0.3,0.244-0.544,0.544-0.544h18.553c3.069,0,6.106,2.488,6.106,5.557
		C164.971,127.927,161.934,130.414,158.865,130.414z"/>
</g>
</svg>
