<?xml version="1.0" encoding="utf-8"?>
<!-- Generator: Adobe Illustrator 16.0.0, SVG Export Plug-In . SVG Version: 6.00 Build 0)  -->
<!DOCTYPE svg PUBLIC "-//W3C//DTD SVG 1.1//EN" "http://www.w3.org/Graphics/SVG/1.1/DTD/svg11.dtd">
<svg version="1.1" id="Capa_1" xmlns="http://www.w3.org/2000/svg" xmlns:xlink="http://www.w3.org/1999/xlink" x="0px" y="0px"
	 width="346.957px" height="226.973px" viewBox="0 0 346.957 226.973" enable-background="new 0 0 346.957 226.973"
	 xml:space="preserve">
<g>
	<g>
		<g>
			<g>
				<defs>
					<rect id="SVGID_1_" x="44.805" y="76.262" width="83.458" height="74.447"/>
				</defs>
				<clipPath id="SVGID_2_">
					<use xlink:href="#SVGID_1_"  overflow="visible"/>
				</clipPath>
				<g clip-path="url(#SVGID_2_)">
					<g>
						<rect x="44.73" y="141.142" fill="#231F20" width="22.999" height="0.911"/>
						<polygon fill="#231F20" points="84.284,126.411 126.904,126.411 126.904,125.503 83.594,125.503 						"/>
						<polygon fill="#231F20" points="116.856,143.618 116.856,142.706 96.64,142.706 97.331,143.618 						"/>
						<polygon fill="#231F20" points="126.904,141.142 95.455,141.142 96.145,142.054 126.904,142.054 						"/>
						<polygon fill="#231F20" points="128.339,127.067 84.78,127.067 85.471,127.976 128.339,127.976 						"/>
						<polygon fill="#231F20" points="128.339,145.181 128.339,144.27 97.826,144.27 98.52,145.181 						"/>
						<polygon fill="#231F20" points="128.339,128.629 85.966,128.629 86.657,129.539 128.339,129.539 						"/>
						<rect x="44.73" y="133.323" fill="#231F20" width="22.999" height="0.907"/>
						<polygon fill="#231F20" points="123.126,131.757 88.339,131.757 89.029,132.67 123.126,132.67 						"/>
						<polygon fill="#231F20" points="128.339,130.194 87.152,130.194 87.843,131.105 128.339,131.105 						"/>
						<polygon fill="#231F20" points="125.866,133.323 89.524,133.323 90.215,134.231 125.866,134.231 						"/>
						<rect x="56.244" y="131.757" fill="#231F20" width="11.485" height="0.912"/>
						<polygon fill="#231F20" points="134.082,123.939 82.407,123.939 83.099,124.848 134.082,124.848 						"/>
						<polygon fill="#231F20" points="73.61,112.335 97.117,112.335 96.443,111.426 72.919,111.426 						"/>
						<rect x="105.374" y="111.426" fill="#231F20" width="22.965" height="0.908"/>
						<polygon fill="#231F20" points="71.733,109.86 72.424,110.771 95.959,110.771 95.284,109.86 						"/>
						<polygon fill="#231F20" points="70.548,108.296 71.238,109.208 94.801,109.208 94.126,108.296 						"/>
						<polygon fill="#231F20" points="94.96,140.49 126.904,140.49 126.904,139.577 94.268,139.577 						"/>
						<rect x="64.857" y="138.012" fill="#231F20" width="2.872" height="0.912"/>
						<rect x="44.73" y="139.577" fill="#231F20" width="22.999" height="0.911"/>
						<polygon fill="#231F20" points="123.126,134.885 90.711,134.885 91.401,135.797 123.126,135.797 						"/>
						<rect x="115.421" y="136.45" fill="#231F20" width="18.66" height="0.909"/>
						<rect x="44.73" y="134.885" fill="#231F20" width="22.999" height="0.912"/>
						<rect x="44.761" y="108.296" fill="#231F20" width="22.967" height="0.911"/>
						<polygon fill="#231F20" points="100.592,117.028 99.917,116.115 76.479,116.115 77.168,117.028 						"/>
						<rect x="44.73" y="130.194" fill="#231F20" width="22.999" height="0.91"/>
						<polygon fill="#231F20" points="89.686,112.988 74.105,112.988 74.797,113.9 89.686,113.9 						"/>
						<polygon fill="#231F20" points="113.985,123.285 113.985,122.373 81.221,122.373 81.914,123.285 						"/>
						<rect x="105.374" y="120.809" fill="#231F20" width="10.048" height="0.91"/>
						<rect x="44.73" y="114.553" fill="#231F20" width="5.772" height="0.91"/>
						<rect x="105.374" y="119.245" fill="#231F20" width="22.965" height="0.912"/>
						<rect x="44.761" y="111.426" fill="#231F20" width="22.967" height="0.908"/>
						<rect x="50.502" y="109.86" fill="#231F20" width="17.226" height="0.91"/>
						<polygon fill="#231F20" points="69.361,106.732 70.052,107.644 93.644,107.644 92.97,106.732 						"/>
						<rect x="44.761" y="106.732" fill="#231F20" width="22.967" height="0.911"/>
						<polygon fill="#231F20" points="104.067,121.719 103.391,120.809 80.037,120.809 80.727,121.719 						"/>
						<rect x="33.248" y="125.503" fill="#231F20" width="34.481" height="0.908"/>
						<rect x="33.248" y="122.373" fill="#231F20" width="34.481" height="0.912"/>
						<rect x="33.248" y="123.939" fill="#231F20" width="34.481" height="0.909"/>
						<rect x="46.197" y="127.067" fill="#231F20" width="21.531" height="0.908"/>
						<rect x="44.73" y="128.629" fill="#231F20" width="22.999" height="0.909"/>
						<polygon fill="#231F20" points="101.75,118.592 101.076,117.68 77.664,117.68 78.355,118.592 						"/>
						<rect x="44.73" y="120.809" fill="#231F20" width="22.999" height="0.91"/>
						<rect x="105.374" y="117.68" fill="#231F20" width="22.965" height="0.911"/>
						<rect x="105.374" y="116.115" fill="#231F20" width="5.742" height="0.911"/>
						<rect x="44.73" y="117.68" fill="#231F20" width="22.999" height="0.911"/>
						<rect x="44.73" y="119.245" fill="#231F20" width="22.999" height="0.912"/>
						<polygon fill="#231F20" points="78.85,119.245 79.542,120.157 102.909,120.157 102.234,119.245 						"/>
						<polygon fill="#231F20" points="73.279,80.145 44.761,80.145 44.761,81.055 73.955,81.055 						"/>
						<rect x="44.73" y="142.706" fill="#231F20" width="22.999" height="0.911"/>
						<polygon fill="#231F20" points="72.122,78.579 43.295,78.579 43.295,79.491 72.796,79.491 						"/>
						<rect x="105.374" y="78.579" fill="#231F20" width="22.965" height="0.911"/>
						<rect x="21.764" y="116.115" fill="#231F20" width="45.965" height="0.911"/>
						<polygon fill="#231F20" points="90.652,103.605 24.635,103.605 24.635,104.517 91.326,104.517 						"/>
						<polygon fill="#231F20" points="88.336,100.476 33.248,100.476 33.248,101.388 89.011,101.388 						"/>
						<rect x="105.374" y="91.093" fill="#231F20" width="28.708" height="0.91"/>
						<rect x="105.374" y="87.964" fill="#231F20" width="28.708" height="0.911"/>
						<rect x="105.374" y="84.836" fill="#231F20" width="34.451" height="0.909"/>
						<rect x="105.374" y="80.145" fill="#231F20" width="11.483" height="0.91"/>
						<rect x="105.374" y="81.708" fill="#231F20" width="22.965" height="0.911"/>
						<rect x="105.374" y="89.529" fill="#231F20" width="28.708" height="0.912"/>
						<rect x="105.374" y="109.86" fill="#231F20" width="34.451" height="0.91"/>
						<rect x="44.73" y="144.27" fill="#231F20" width="22.999" height="0.91"/>
						<polygon fill="#231F20" points="99.706,146.744 128.339,146.744 128.339,145.833 99.012,145.833 						"/>
						<rect x="105.374" y="108.296" fill="#231F20" width="40.191" height="0.911"/>
						<rect x="105.374" y="95.783" fill="#231F20" width="45.934" height="0.912"/>
						<polygon fill="#231F20" points="93.773,138.925 139.825,138.925 139.825,138.012 93.082,138.012 						"/>
						<rect x="61.986" y="147.399" fill="#231F20" width="5.743" height="0.91"/>
						<rect x="61.986" y="145.833" fill="#231F20" width="5.743" height="0.91"/>
						<polygon fill="#231F20" points="100.89,148.31 128.339,148.31 128.339,147.399 100.199,147.399 						"/>
						<polygon fill="#231F20" points="102.076,149.872 128.339,149.872 128.339,148.962 101.384,148.962 						"/>
						<rect x="44.761" y="148.962" fill="#231F20" width="22.967" height="0.909"/>
						<polygon fill="#231F20" points="56.244,87.964 56.244,88.876 79.745,88.876 79.07,87.964 						"/>
						<rect x="105.374" y="97.348" fill="#231F20" width="22.965" height="0.91"/>
						<rect x="105.374" y="98.912" fill="#231F20" width="22.965" height="0.912"/>
						<polygon fill="#231F20" points="46.197,99.825 87.853,99.825 87.177,98.912 46.197,98.912 						"/>
						<polygon fill="#231F20" points="67.729,95.783 67.729,96.696 85.535,96.696 84.861,95.783 						"/>
						<polygon fill="#231F20" points="44.761,94.22 44.761,95.132 84.377,95.132 83.702,94.22 						"/>
						<polygon fill="#231F20" points="46.197,98.259 86.695,98.259 86.02,97.348 46.197,97.348 						"/>
						<rect x="105.374" y="103.605" fill="#231F20" width="2.87" height="0.912"/>
						<rect x="105.374" y="106.732" fill="#231F20" width="22.965" height="0.911"/>
						<rect x="105.374" y="102.039" fill="#231F20" width="22.965" height="0.911"/>
						<polygon fill="#231F20" points="44.761,102.95 90.167,102.95 89.493,102.039 44.761,102.039 						"/>
						<rect x="105.374" y="100.476" fill="#231F20" width="8.611" height="0.911"/>
						<polygon fill="#231F20" points="44.761,81.708 44.761,82.619 75.112,82.619 74.437,81.708 						"/>
						<polygon fill="#231F20" points="56.244,93.567 83.22,93.567 82.544,92.655 56.244,92.655 						"/>
						<polygon fill="#231F20" points="57.705,89.529 57.705,90.441 80.902,90.441 80.229,89.529 						"/>
						<polygon fill="#231F20" points="56.244,91.093 56.244,92.003 82.062,92.003 81.387,91.093 						"/>
						<rect x="105.374" y="94.22" fill="#231F20" width="22.965" height="0.911"/>
						<rect x="105.374" y="105.169" fill="#231F20" width="17.224" height="0.91"/>
						<polygon fill="#231F20" points="77.429,85.746 76.754,84.836 50.502,84.836 50.502,85.746 						"/>
						<rect x="105.374" y="83.273" fill="#231F20" width="22.965" height="0.911"/>
						<rect x="105.374" y="92.655" fill="#231F20" width="28.708" height="0.912"/>
						<rect x="105.374" y="86.401" fill="#231F20" width="21.53" height="0.91"/>
						<polygon fill="#231F20" points="44.761,87.311 78.587,87.311 77.912,86.401 44.761,86.401 						"/>
						<polygon fill="#231F20" points="44.761,84.184 76.269,84.184 75.596,83.273 44.761,83.273 						"/>
					</g>
				</g>
			</g>
		</g>
	</g>
	<g>
		<g>
			<g>
				<path fill="#231F20" d="M143.739,78.751l6.804,10.935h0.046V78.751h3.354v16.298h-3.582l-6.781-10.912h-0.045v10.912h-3.355
					V78.751H143.739z"/>
				<path fill="#231F20" d="M156.707,83.579c0.365-1.044,0.889-1.953,1.576-2.729c0.683-0.778,1.524-1.385,2.522-1.827
					c0.996-0.443,2.118-0.66,3.366-0.66c1.264,0,2.388,0.218,3.379,0.66c0.988,0.442,1.826,1.049,2.51,1.827
					c0.687,0.775,1.211,1.686,1.577,2.729c0.365,1.041,0.548,2.171,0.548,3.389c0,1.188-0.184,2.295-0.548,3.321
					c-0.365,1.029-0.89,1.922-1.577,2.683c-0.684,0.764-1.521,1.36-2.51,1.794c-0.991,0.432-2.116,0.651-3.379,0.651
					c-1.249,0-2.371-0.219-3.366-0.651c-0.998-0.434-1.839-1.031-2.522-1.794c-0.687-0.761-1.211-1.654-1.576-2.683
					c-0.366-1.025-0.549-2.133-0.549-3.321C156.158,85.751,156.341,84.621,156.707,83.579z M159.983,88.967
					c0.158,0.646,0.414,1.229,0.765,1.746c0.349,0.516,0.804,0.931,1.37,1.243c0.563,0.311,1.249,0.467,2.053,0.467
					c0.807,0,1.493-0.157,2.056-0.467c0.562-0.312,1.019-0.729,1.369-1.243c0.35-0.518,0.606-1.1,0.765-1.746
					c0.159-0.648,0.24-1.313,0.24-1.999c0-0.715-0.082-1.407-0.24-2.078c-0.159-0.667-0.414-1.265-0.765-1.793
					c-0.35-0.523-0.807-0.941-1.369-1.254c-0.563-0.312-1.249-0.469-2.056-0.469c-0.805,0-1.49,0.158-2.053,0.469
					c-0.565,0.313-1.02,0.729-1.37,1.254c-0.35,0.526-0.606,1.124-0.765,1.793c-0.161,0.669-0.24,1.363-0.24,2.078
					C159.742,87.654,159.823,88.319,159.983,88.967z"/>
				<path fill="#231F20" d="M177.936,95.049l-5.273-16.298h3.677l3.629,11.458h0.045l3.675-11.458h3.7l-5.411,16.298H177.936z"/>
				<path fill="#231F20" d="M192.136,78.751v16.298h-3.582V78.751H192.136z"/>
				<path fill="#231F20" d="M207.248,78.751v3.012h-8.607v3.494h7.899v2.785h-7.899v3.994h8.788v3.014h-12.373V78.751H207.248z"/>
				<path fill="#231F20" d="M214.665,78.751l3.813,11.208h0.045l3.608-11.208h5.043v16.298h-3.355v-11.55h-0.045l-3.995,11.551
					h-2.763l-3.995-11.436h-0.047V95.05h-3.353V78.751H214.665z"/>
				<path fill="#231F20" d="M237.768,78.751c0.775,0,1.482,0.068,2.12,0.204c0.64,0.137,1.19,0.362,1.645,0.675
					c0.457,0.31,0.812,0.728,1.063,1.242c0.25,0.517,0.374,1.157,0.374,1.917c0,0.824-0.186,1.509-0.558,2.055
					c-0.375,0.549-0.925,0.997-1.657,1.347c1.004,0.289,1.755,0.796,2.249,1.518c0.494,0.723,0.74,1.593,0.74,2.613
					c0,0.821-0.159,1.533-0.479,2.135c-0.318,0.601-0.749,1.091-1.291,1.472c-0.541,0.38-1.156,0.662-1.85,0.845
					c-0.691,0.183-1.402,0.273-2.133,0.273h-7.896V78.75L237.768,78.751L237.768,78.751z M237.311,85.347
					c0.639,0,1.163-0.151,1.576-0.456c0.41-0.304,0.616-0.799,0.616-1.482c0-0.381-0.07-0.694-0.206-0.938
					c-0.136-0.241-0.32-0.434-0.551-0.573c-0.227-0.134-0.488-0.23-0.786-0.284c-0.296-0.053-0.605-0.079-0.923-0.079h-3.356v3.812
					H237.311z M237.516,92.263c0.35,0,0.685-0.031,1.004-0.1c0.32-0.069,0.6-0.185,0.846-0.343c0.242-0.161,0.437-0.377,0.582-0.651
					c0.144-0.273,0.216-0.623,0.216-1.051c0-0.836-0.235-1.433-0.707-1.791c-0.471-0.356-1.097-0.538-1.871-0.538h-3.902v4.473
					H237.516z"/>
				<path fill="#231F20" d="M254.729,78.751c0.73,0,1.389,0.118,1.976,0.354c0.585,0.235,1.087,0.56,1.505,0.968
					c0.42,0.413,0.739,0.888,0.961,1.428c0.221,0.541,0.329,1.124,0.329,1.746c0,0.96-0.199,1.79-0.603,2.488
					c-0.406,0.701-1.062,1.233-1.975,1.598v0.047c0.44,0.123,0.804,0.307,1.093,0.559c0.287,0.251,0.526,0.547,0.706,0.891
					c0.184,0.343,0.314,0.72,0.402,1.13c0.084,0.41,0.139,0.822,0.17,1.231c0.017,0.261,0.028,0.563,0.047,0.912
					c0.016,0.352,0.042,0.707,0.079,1.073c0.04,0.367,0.1,0.712,0.184,1.042c0.085,0.328,0.21,0.604,0.377,0.833h-3.585
					c-0.195-0.517-0.319-1.132-0.364-1.849c-0.047-0.716-0.115-1.402-0.207-2.055c-0.122-0.852-0.377-1.475-0.775-1.87
					c-0.396-0.398-1.041-0.593-1.94-0.593h-3.584v6.368h-3.581V78.751H254.729z M253.45,86.123c0.82,0,1.438-0.182,1.847-0.547
					c0.412-0.366,0.618-0.958,0.618-1.779c0-0.794-0.204-1.368-0.618-1.725c-0.409-0.359-1.026-0.537-1.847-0.537h-3.929v4.587
					L253.45,86.123L253.45,86.123z"/>
				<path fill="#231F20" d="M274.381,78.751v3.012h-8.608v3.494h7.9v2.785h-7.9v3.994h8.79v3.014H262.19V78.751H274.381z"/>
			</g>
		</g>
		<g>
			<path fill="#231F20" d="M152.521,107.141v3.013h-8.607v3.493h7.899v2.786h-7.899v3.993h8.789v3.013H140.33v-16.297H152.521z"/>
			<path fill="#231F20" d="M158.478,107.141v13.285h7.946v3.013h-11.528v-16.297H158.478z"/>
			<path fill="#231F20" d="M180.393,107.141v3.013h-8.605v3.493h7.898v2.786h-7.898v3.993h8.788v3.013h-12.372v-16.297H180.393z"/>
			<path fill="#231F20" d="M193.223,111.49c-0.214-0.341-0.479-0.643-0.798-0.903c-0.322-0.258-0.685-0.458-1.087-0.604
				c-0.403-0.144-0.826-0.216-1.267-0.216c-0.805,0-1.49,0.155-2.053,0.466c-0.563,0.312-1.019,0.73-1.37,1.257
				c-0.35,0.523-0.606,1.123-0.766,1.794c-0.159,0.669-0.239,1.36-0.239,2.077c0,0.683,0.081,1.351,0.239,1.997
				c0.159,0.646,0.415,1.229,0.766,1.746c0.35,0.518,0.806,0.932,1.37,1.243c0.563,0.312,1.248,0.469,2.053,0.469
				c1.096,0,1.953-0.334,2.57-1.004s0.991-1.553,1.13-2.648h3.469c-0.088,1.019-0.329,1.94-0.708,2.759
				c-0.377,0.825-0.882,1.523-1.507,2.102c-0.623,0.578-1.354,1.021-2.189,1.324c-0.837,0.306-1.757,0.457-2.761,0.457
				c-1.247,0-2.37-0.218-3.367-0.652c-0.996-0.434-1.836-1.03-2.524-1.791c-0.681-0.763-1.207-1.657-1.573-2.685
				c-0.364-1.023-0.549-2.134-0.549-3.319c0-1.22,0.185-2.349,0.549-3.391c0.366-1.044,0.893-1.951,1.573-2.728
				c0.688-0.777,1.528-1.385,2.524-1.828c0.997-0.441,2.12-0.662,3.367-0.662c0.898,0,1.747,0.13,2.544,0.389
				c0.803,0.261,1.515,0.635,2.147,1.128c0.631,0.496,1.154,1.109,1.564,1.839c0.409,0.729,0.668,1.568,0.774,2.51h-3.471
				C193.573,112.209,193.434,111.833,193.223,111.49z"/>
			<path fill="#231F20" d="M198.176,110.155v-3.013h13.354v3.013h-4.886v13.285h-3.582v-13.285H198.176z"/>
			<path fill="#231F20" d="M221.961,107.141c0.73,0,1.391,0.119,1.976,0.353c0.588,0.238,1.09,0.56,1.508,0.971
				c0.418,0.411,0.737,0.886,0.96,1.428c0.221,0.54,0.328,1.122,0.328,1.747c0,0.96-0.199,1.79-0.603,2.486
				c-0.404,0.7-1.059,1.234-1.977,1.598v0.048c0.443,0.123,0.806,0.307,1.095,0.559c0.289,0.251,0.526,0.55,0.708,0.89
				c0.184,0.343,0.317,0.719,0.4,1.131c0.084,0.412,0.141,0.821,0.172,1.232c0.017,0.26,0.028,0.563,0.045,0.911
				c0.017,0.35,0.043,0.706,0.081,1.072c0.039,0.368,0.098,0.714,0.182,1.042c0.085,0.327,0.211,0.604,0.375,0.831h-3.58
				c-0.197-0.517-0.319-1.133-0.367-1.847c-0.045-0.717-0.113-1.401-0.204-2.057c-0.123-0.852-0.38-1.475-0.775-1.869
				c-0.396-0.397-1.044-0.594-1.941-0.594h-3.581v6.367h-3.583v-16.298L221.961,107.141L221.961,107.141z M220.686,114.515
				c0.82,0,1.437-0.182,1.849-0.547c0.409-0.368,0.616-0.96,0.616-1.782c0-0.791-0.207-1.367-0.616-1.727
				c-0.412-0.354-1.028-0.535-1.849-0.535h-3.927v4.588L220.686,114.515L220.686,114.515z"/>
			<path fill="#231F20" d="M229.265,111.97c0.366-1.043,0.891-1.951,1.577-2.728c0.683-0.777,1.524-1.385,2.521-1.828
				c0.999-0.44,2.12-0.662,3.368-0.662c1.264,0,2.389,0.223,3.376,0.662c0.992,0.442,1.828,1.05,2.511,1.828
				c0.688,0.776,1.211,1.686,1.579,2.728c0.362,1.042,0.547,2.172,0.547,3.391c0,1.187-0.185,2.296-0.547,3.32
				c-0.368,1.027-0.892,1.922-1.579,2.684c-0.685,0.762-1.519,1.358-2.511,1.792c-0.987,0.434-2.113,0.651-3.376,0.651
				c-1.248,0-2.369-0.218-3.368-0.651c-0.996-0.434-1.838-1.03-2.521-1.792c-0.687-0.762-1.211-1.656-1.577-2.684
				c-0.364-1.024-0.546-2.134-0.546-3.32C228.719,114.142,228.9,113.011,229.265,111.97z M232.541,117.357
				c0.161,0.646,0.415,1.229,0.764,1.746c0.353,0.518,0.809,0.932,1.372,1.244c0.562,0.311,1.247,0.468,2.054,0.468
				c0.805,0,1.49-0.157,2.053-0.468c0.564-0.313,1.019-0.727,1.37-1.244c0.352-0.516,0.604-1.1,0.767-1.746
				c0.16-0.646,0.236-1.314,0.236-1.997c0-0.717-0.078-1.406-0.236-2.077c-0.161-0.671-0.415-1.27-0.767-1.794
				c-0.351-0.525-0.806-0.944-1.37-1.257c-0.563-0.312-1.248-0.467-2.053-0.467c-0.807,0-1.492,0.155-2.054,0.467
				c-0.563,0.312-1.02,0.73-1.372,1.257c-0.347,0.523-0.603,1.123-0.764,1.794c-0.16,0.669-0.239,1.36-0.239,2.077
				C232.302,116.042,232.381,116.711,232.541,117.357z M235.018,105.68l2.193-3.241h3.581l-3.517,3.241H235.018z"/>
			<path fill="#231F20" d="M250.518,107.141l6.803,10.933h0.045v-10.933h3.356v16.297h-3.58l-6.783-10.91h-0.045v10.91h-3.356
				v-16.297H250.518z"/>
			<path fill="#231F20" d="M267.225,107.141v16.297h-3.582v-16.297H267.225z"/>
			<path fill="#231F20" d="M280.602,111.49c-0.211-0.341-0.479-0.643-0.8-0.903c-0.317-0.258-0.679-0.458-1.083-0.604
				c-0.406-0.144-0.825-0.216-1.267-0.216c-0.806,0-1.491,0.155-2.055,0.466c-0.563,0.312-1.017,0.73-1.369,1.257
				c-0.351,0.523-0.604,1.123-0.766,1.794c-0.161,0.669-0.241,1.36-0.241,2.077c0,0.683,0.082,1.351,0.241,1.997
				c0.161,0.646,0.413,1.229,0.766,1.746c0.351,0.518,0.805,0.932,1.369,1.243c0.563,0.312,1.249,0.469,2.055,0.469
				c1.095,0,1.954-0.334,2.568-1.004c0.618-0.67,0.993-1.553,1.13-2.648h3.471c-0.092,1.019-0.327,1.94-0.706,2.759
				c-0.381,0.825-0.884,1.523-1.508,2.102c-0.625,0.578-1.356,1.021-2.193,1.324c-0.836,0.306-1.757,0.457-2.762,0.457
				c-1.247,0-2.368-0.218-3.365-0.652c-0.997-0.434-1.836-1.03-2.523-1.791c-0.684-0.763-1.208-1.657-1.572-2.685
				c-0.366-1.023-0.55-2.134-0.55-3.319c0-1.22,0.184-2.349,0.55-3.391c0.364-1.044,0.889-1.951,1.572-2.728
				c0.688-0.777,1.526-1.385,2.523-1.828c0.998-0.441,2.118-0.662,3.365-0.662c0.897,0,1.747,0.13,2.547,0.389
				c0.8,0.261,1.514,0.635,2.146,1.128c0.628,0.496,1.151,1.109,1.563,1.839c0.41,0.729,0.668,1.568,0.774,2.51h-3.469
				C280.953,112.209,280.815,111.833,280.602,111.49z"/>
			<path fill="#231F20" d="M286.676,111.97c0.365-1.043,0.891-1.951,1.577-2.728c0.685-0.777,1.522-1.385,2.521-1.828
				c0.999-0.44,2.12-0.662,3.365-0.662c1.263,0,2.391,0.223,3.379,0.662c0.99,0.442,1.826,1.05,2.511,1.828
				c0.688,0.776,1.21,1.686,1.575,2.728c0.367,1.042,0.551,2.172,0.551,3.391c0,1.187-0.184,2.296-0.551,3.32
				c-0.365,1.027-0.888,1.922-1.575,2.684c-0.685,0.762-1.519,1.358-2.511,1.792c-0.988,0.434-2.116,0.651-3.379,0.651
				c-1.245,0-2.367-0.218-3.365-0.651c-0.997-0.434-1.836-1.03-2.521-1.792c-0.687-0.762-1.212-1.656-1.577-2.684
				c-0.367-1.024-0.55-2.134-0.55-3.32C286.126,114.142,286.309,113.011,286.676,111.97z M289.95,117.357
				c0.161,0.646,0.416,1.229,0.767,1.746c0.35,0.518,0.804,0.932,1.369,1.244c0.562,0.311,1.248,0.468,2.053,0.468
				c0.808,0,1.492-0.157,2.055-0.468c0.562-0.313,1.019-0.727,1.37-1.244c0.352-0.516,0.606-1.1,0.767-1.746
				c0.158-0.646,0.239-1.314,0.239-1.997c0-0.717-0.082-1.406-0.239-2.077c-0.161-0.671-0.415-1.27-0.767-1.794
				c-0.351-0.525-0.806-0.944-1.37-1.257s-1.247-0.467-2.055-0.467c-0.805,0-1.491,0.155-2.053,0.467
				c-0.563,0.312-1.019,0.73-1.369,1.257c-0.351,0.523-0.607,1.123-0.767,1.794c-0.16,0.669-0.236,1.36-0.236,2.077
				C289.712,116.042,289.79,116.711,289.95,117.357z"/>
		</g>
		<g>
			<path fill="#231F20" d="M141.334,137.174c0.244-0.785,0.608-1.471,1.097-2.055c0.487-0.589,1.099-1.043,1.838-1.372
				c0.736-0.325,1.584-0.486,2.545-0.486c0.73,0,1.426,0.112,2.087,0.339c0.663,0.229,1.245,0.557,1.748,0.981
				c0.502,0.427,0.901,0.953,1.199,1.574c0.296,0.626,0.444,1.326,0.444,2.102c0,0.807-0.128,1.499-0.388,2.076
				c-0.259,0.578-0.602,1.095-1.028,1.544c-0.425,0.446-0.909,0.855-1.449,1.221c-0.538,0.366-1.083,0.728-1.632,1.085
				c-0.547,0.356-1.08,0.74-1.597,1.153c-0.517,0.409-0.976,0.891-1.371,1.438h7.556v2.786h-11.732c0-0.93,0.132-1.735,0.398-2.421
				c0.266-0.685,0.627-1.297,1.085-1.834c0.457-0.543,0.993-1.04,1.61-1.496c0.615-0.457,1.266-0.922,1.95-1.394
				c0.351-0.244,0.724-0.489,1.121-0.741c0.394-0.251,0.755-0.528,1.083-0.832c0.327-0.307,0.603-0.651,0.821-1.028
				c0.222-0.38,0.333-0.814,0.333-1.301c0-0.776-0.225-1.38-0.674-1.815c-0.449-0.435-1.022-0.65-1.723-0.65
				c-0.473,0-0.873,0.11-1.197,0.33c-0.328,0.223-0.591,0.512-0.79,0.869c-0.197,0.358-0.338,0.754-0.422,1.187
				c-0.083,0.436-0.125,0.865-0.125,1.289h-3.104C140.986,138.803,141.091,137.955,141.334,137.174z"/>
			<path fill="#231F20" d="M153.583,137.582c0.311-1.055,0.733-1.905,1.264-2.544c0.534-0.641,1.155-1.098,1.863-1.371
				c0.707-0.275,1.456-0.409,2.249-0.409c0.805,0,1.563,0.133,2.269,0.409c0.709,0.272,1.333,0.729,1.873,1.371
				c0.54,0.638,0.966,1.486,1.279,2.544c0.31,1.057,0.467,2.364,0.467,3.915c0,1.598-0.157,2.933-0.467,4.007
				c-0.313,1.072-0.739,1.929-1.279,2.568c-0.541,0.639-1.163,1.097-1.873,1.368c-0.707,0.275-1.464,0.413-2.269,0.413
				c-0.793,0-1.542-0.138-2.249-0.413c-0.708-0.271-1.329-0.729-1.863-1.368c-0.531-0.64-0.954-1.496-1.264-2.568
				c-0.313-1.074-0.468-2.408-0.468-4.007C153.115,139.947,153.269,138.64,153.583,137.582z M156.402,143.155
				c0.03,0.646,0.125,1.269,0.286,1.869s0.413,1.114,0.766,1.541c0.349,0.426,0.85,0.639,1.507,0.639
				c0.668,0,1.181-0.213,1.54-0.639c0.358-0.427,0.615-0.94,0.777-1.541c0.159-0.601,0.254-1.226,0.284-1.869
				c0.031-0.648,0.046-1.198,0.046-1.657c0-0.273-0.003-0.604-0.011-0.993c-0.008-0.386-0.039-0.788-0.092-1.197
				c-0.053-0.41-0.129-0.817-0.227-1.222c-0.1-0.404-0.249-0.766-0.445-1.085c-0.198-0.319-0.448-0.577-0.754-0.777
				c-0.305-0.195-0.677-0.295-1.118-0.295c-0.442,0-0.813,0.098-1.109,0.295c-0.294,0.2-0.538,0.458-0.73,0.777
				c-0.19,0.319-0.338,0.681-0.445,1.085c-0.107,0.404-0.181,0.81-0.229,1.222c-0.045,0.409-0.072,0.812-0.079,1.197
				c-0.008,0.39-0.011,0.72-0.011,0.993C156.356,141.956,156.371,142.507,156.402,143.155z"/>
			<path fill="#231F20" d="M170.808,149.556v-10.365h-4.019v-2.439c0.564,0.015,1.107-0.024,1.633-0.127
				c0.524-0.095,0.996-0.271,1.416-0.521c0.417-0.253,0.771-0.586,1.06-0.994c0.29-0.41,0.481-0.92,0.572-1.528h2.581v15.979
				L170.808,149.556L170.808,149.556z"/>
			<path fill="#231F20" d="M185.691,136.295c-0.379-0.399-0.853-0.595-1.417-0.595c-0.577,0-1.059,0.17-1.447,0.515
				c-0.387,0.341-0.694,0.761-0.925,1.258c-0.231,0.494-0.396,1.021-0.504,1.585c-0.105,0.563-0.165,1.065-0.181,1.508l0.045,0.047
				c0.443-0.641,0.96-1.098,1.552-1.371c0.594-0.273,1.278-0.411,2.055-0.411c0.684,0,1.354,0.148,2.01,0.446
				c0.654,0.298,1.21,0.694,1.665,1.196c0.426,0.488,0.739,1.043,0.937,1.667c0.199,0.624,0.298,1.253,0.298,1.894
				c0,0.821-0.133,1.587-0.399,2.296c-0.268,0.71-0.647,1.325-1.141,1.85c-0.495,0.522-1.086,0.935-1.771,1.229
				c-0.685,0.301-1.443,0.446-2.281,0.446c-1.202,0-2.198-0.239-2.991-0.718c-0.791-0.481-1.425-1.111-1.895-1.885
				c-0.475-0.775-0.8-1.655-0.98-2.636c-0.185-0.983-0.275-1.982-0.275-3.004c0-0.988,0.115-1.978,0.345-2.969
				c0.227-0.987,0.591-1.882,1.094-2.681c0.5-0.801,1.15-1.451,1.94-1.953c0.791-0.502,1.758-0.751,2.899-0.751
				c0.685,0,1.323,0.096,1.918,0.295c0.591,0.2,1.117,0.483,1.574,0.855c0.457,0.375,0.831,0.833,1.119,1.382
				c0.291,0.549,0.48,1.179,0.572,1.896h-3.082C186.313,137.152,186.07,136.688,185.691,136.295z M182.962,141.508
				c-0.328,0.161-0.596,0.379-0.81,0.654c-0.213,0.271-0.375,0.587-0.481,0.945c-0.104,0.357-0.158,0.733-0.158,1.129
				c0,0.366,0.057,0.728,0.171,1.087c0.115,0.356,0.281,0.678,0.503,0.955c0.22,0.285,0.491,0.51,0.81,0.675
				c0.319,0.168,0.685,0.251,1.097,0.251c0.396,0,0.741-0.083,1.039-0.251c0.296-0.165,0.55-0.389,0.765-0.66
				c0.212-0.273,0.373-0.589,0.478-0.939c0.108-0.348,0.161-0.704,0.161-1.07c0-0.379-0.05-0.751-0.148-1.108
				c-0.099-0.356-0.247-0.677-0.444-0.957c-0.196-0.283-0.453-0.51-0.765-0.687c-0.314-0.175-0.676-0.263-1.087-0.263
				C183.667,141.27,183.288,141.348,182.962,141.508z"/>
		</g>
	</g>
</g>
</svg>
