<?xml version="1.0" encoding="utf-8"?>
<!-- Generator: Adobe Illustrator 16.0.0, SVG Export Plug-In . SVG Version: 6.00 Build 0)  -->
<!DOCTYPE svg PUBLIC "-//W3C//DTD SVG 1.1//EN" "http://www.w3.org/Graphics/SVG/1.1/DTD/svg11.dtd">
<svg version="1.1" id="Capa_1" xmlns="http://www.w3.org/2000/svg" xmlns:xlink="http://www.w3.org/1999/xlink" x="0px" y="0px"
	 width="346.957px" height="226.973px" viewBox="0 0 346.957 226.973" enable-background="new 0 0 346.957 226.973"
	 xml:space="preserve">
<g>
	<g>
		<g>
			<rect x="262.118" y="86.148" width="2.691" height="26.899"/>
		</g>
		<g>
			<rect x="300.453" y="127.131" width="2.695" height="25.694"/>
		</g>
		<g>
			<rect x="262.118" y="118.742" width="41.03" height="2.692"/>
		</g>
		<g>
			<rect x="270.509" y="110.354" width="32.644" height="2.693"/>
		</g>
	</g>
	<g>
		<path d="M44.586,117.141c-0.048,0.307-0.086,0.671-0.086,1.018c0,1.71,1.07,3.175,2.956,3.175c1.743,0,3.199-1.291,3.524-2.724
			h0.69c-0.547,1.944-2.057,3.322-4.289,3.322c-2.363,0-3.575-1.688-3.575-3.687c0-3.468,1.893-6.083,4.958-6.083
			c2.195,0,3.417,1.542,3.417,3.599c0,0.47-0.059,0.928-0.131,1.377h-7.464L44.586,117.141L44.586,117.141z M51.397,116.54
			c0.053-0.31,0.09-0.545,0.09-0.779c0-1.592-0.895-2.997-2.849-2.997c-2.202,0-3.523,1.799-3.94,3.776H51.397z"/>
		<path d="M56.642,108.75h0.69l-2.71,12.967h-0.687L56.642,108.75z"/>
		<path d="M68.342,113.477c-0.211-1.507-1.321-2.319-2.826-2.319c-1.415,0-3.401,0.741-3.401,4.504c0,2.06,0.912,4.237,3.283,4.237
			c1.58,0,2.678-1.052,2.943-2.828h2.732c-0.506,3.215-2.493,4.982-5.676,4.982c-3.883,0-6.012-2.751-6.012-6.392
			c0-3.74,2.034-6.661,6.102-6.661c2.875,0,5.319,1.438,5.582,4.478h-2.728V113.477z"/>
		<path d="M83.817,121.717H81.14v-1.728h-0.053c-0.668,1.245-2.156,2.061-3.516,2.061c-3.235,0-4.622-1.628-4.622-4.858v-7.856
			h2.735v7.59c0,2.181,0.879,2.973,2.369,2.973c2.273,0,3.041-1.463,3.041-3.379v-7.183h2.732v12.38H83.817z"/>
		<path d="M86.756,104.615h2.732v17.103h-2.732V104.615z"/>
		<path d="M91.212,109.331h2.058v-3.711h2.735v3.711h2.465v2.037h-2.465v6.61c0,1.123,0.094,1.705,1.313,1.705
			c0.381,0,0.768,0,1.152-0.097v2.106c-0.601,0.049-1.175,0.147-1.772,0.147c-2.854,0-3.375-1.104-3.429-3.159v-7.307h-2.059
			L91.212,109.331L91.212,109.331z"/>
		<path d="M111.069,121.717h-2.677v-1.728h-0.051c-0.673,1.245-2.153,2.061-3.517,2.061c-3.235,0-4.629-1.628-4.629-4.858v-7.856
			h2.734v7.59c0,2.181,0.885,2.973,2.375,2.973c2.271,0,3.038-1.463,3.038-3.379v-7.183h2.732L111.069,121.717L111.069,121.717z"/>
		<path d="M113.943,109.331h2.559v2.395h0.048c0.313-1.318,1.944-2.73,3.617-2.73c0.628,0,0.792,0.048,1.034,0.069v2.637
			c-0.387-0.048-0.794-0.118-1.173-0.118c-1.873,0-3.353,1.508-3.353,4.236v5.897h-2.732V109.331z"/>
		<path d="M133.099,118.961c0,0.672,0.145,0.932,0.645,0.932c0.162,0,0.385,0,0.673-0.047v1.895
			c-0.406,0.148-1.267,0.311-1.725,0.311c-1.101,0-1.894-0.386-2.104-1.508c-1.082,1.053-2.829,1.508-4.292,1.508
			c-2.229,0-4.237-1.198-4.237-3.617c0-3.09,2.465-3.59,4.763-3.856c1.964-0.358,3.713-0.144,3.713-1.747
			c0-1.414-1.465-1.675-2.559-1.675c-1.533,0-2.615,0.621-2.734,1.959h-2.732c0.191-3.184,2.896-4.117,5.626-4.117
			c2.42,0,4.96,0.982,4.96,3.592L133.099,118.961L133.099,118.961z M130.363,115.512c-0.842,0.554-2.156,0.526-3.353,0.749
			c-1.171,0.19-2.223,0.62-2.223,2.058c0,1.229,1.553,1.586,2.514,1.586c1.194,0,3.062-0.628,3.062-2.346V115.512L130.363,115.512z"
			/>
		<path d="M136.115,104.615h2.732v17.103h-2.732V104.615z"/>
		<path d="M143.873,117.741c0.143,1.583,1.338,2.155,2.796,2.155c1.031,0,2.826-0.212,2.76-1.633
			c-0.075-1.433-2.067-1.602-4.05-2.059c-2.014-0.429-3.979-1.148-3.979-3.662c0-2.708,2.923-3.545,5.173-3.545
			c2.535,0,4.838,1.051,5.175,3.808h-2.855c-0.233-1.292-1.315-1.651-2.512-1.651c-0.79,0-2.25,0.191-2.25,1.266
			c0,1.343,2.014,1.534,4.02,1.99c1.99,0.451,3.998,1.172,3.998,3.616c0,2.946-2.97,4.022-5.533,4.022
			c-3.115,0-5.439-1.389-5.482-4.309H143.873z"/>
		<path d="M164.968,118.961c0,0.672,0.146,0.932,0.641,0.932c0.168,0,0.391,0,0.675-0.047v1.895
			c-0.409,0.148-1.275,0.311-1.724,0.311c-1.105,0-1.892-0.386-2.107-1.508c-1.079,1.053-2.826,1.508-4.29,1.508
			c-2.225,0-4.238-1.198-4.238-3.617c0-3.09,2.466-3.59,4.769-3.856c1.961-0.358,3.706-0.144,3.706-1.747
			c0-1.414-1.459-1.675-2.559-1.675c-1.532,0-2.614,0.621-2.732,1.959h-2.733c0.197-3.184,2.9-4.117,5.632-4.117
			c2.417,0,4.958,0.982,4.958,3.592v6.373L164.968,118.961L164.968,118.961z M162.236,115.512c-0.839,0.554-2.157,0.526-3.357,0.749
			c-1.171,0.19-2.229,0.62-2.229,2.058c0,1.229,1.558,1.586,2.516,1.586c1.2,0,3.07-0.628,3.07-2.346V115.512z"/>
		<path d="M168.139,109.331h2.591v1.824l0.046,0.044c0.815-1.365,2.226-2.201,3.857-2.201c2.682,0,4.38,1.438,4.38,4.214v8.504
			h-2.731v-7.787c-0.046-1.938-0.813-2.775-2.414-2.775c-1.828,0-2.999,1.435-2.999,3.256v7.306h-2.734L168.139,109.331
			L168.139,109.331z"/>
		<path d="M181.884,109.331h2.586v1.724h0.073c0.813-1.223,1.846-2.06,3.811-2.06c1.508,0,2.918,0.645,3.474,2.06
			c0.91-1.27,2.081-2.06,3.881-2.06c2.609,0,4.137,1.149,4.137,4.167v8.555h-2.728v-7.242c0-1.957-0.121-3.326-2.255-3.326
			c-1.845,0-2.637,1.22-2.637,3.303v7.265h-2.734v-7.959c0-1.7-0.526-2.609-2.178-2.609c-1.419,0-2.708,1.146-2.708,3.208v7.36
			h-2.731v-12.386H181.884z"/>
		<path d="M213.09,118.961c0,0.672,0.14,0.932,0.643,0.932c0.167,0,0.386,0,0.674-0.047v1.895c-0.401,0.148-1.269,0.311-1.721,0.311
			c-1.105,0-1.894-0.386-2.114-1.508c-1.074,1.053-2.818,1.508-4.285,1.508c-2.229,0-4.235-1.198-4.235-3.617
			c0-3.09,2.459-3.59,4.761-3.856c1.964-0.358,3.71-0.144,3.71-1.747c0-1.414-1.466-1.675-2.563-1.675
			c-1.527,0-2.606,0.621-2.728,1.959h-2.734c0.192-3.184,2.896-4.117,5.625-4.117c2.42,0,4.959,0.982,4.959,3.592L213.09,118.961
			L213.09,118.961z M210.355,115.512c-0.836,0.554-2.15,0.526-3.348,0.749c-1.174,0.19-2.229,0.62-2.229,2.058
			c0,1.229,1.551,1.586,2.512,1.586c1.197,0,3.064-0.628,3.064-2.346V115.512z"/>
		<path d="M216.262,109.331h2.565v2.395h0.045c0.313-1.318,1.941-2.73,3.62-2.73c0.627,0,0.789,0.048,1.025,0.069v2.637
			c-0.377-0.048-0.786-0.118-1.173-0.118c-1.874,0-3.352,1.508-3.352,4.236v5.897h-2.735L216.262,109.331L216.262,109.331z"/>
		<path d="M224.405,109.331h2.057v-3.711h2.735v3.711h2.469v2.037h-2.469v6.61c0,1.123,0.093,1.705,1.315,1.705
			c0.384,0,0.764,0,1.153-0.097v2.106c-0.598,0.049-1.172,0.147-1.772,0.147c-2.853,0-3.376-1.104-3.426-3.159v-7.307h-2.057v-2.04
			h-0.003v-0.003H224.405z"/>
		<path d="M235.415,104.208h3.234l-3.399,3.422h-1.99L235.415,104.208z M233.695,121.717v-12.386h2.729v12.386H233.695z"/>
		<path d="M239.391,109.331h2.583v1.824l0.05,0.044c0.813-1.365,2.227-2.201,3.857-2.201c2.682,0,4.384,1.438,4.384,4.214v8.504
			h-2.733v-7.787c-0.042-1.938-0.811-2.775-2.421-2.775c-1.824,0-2.992,1.435-2.992,3.256v7.306h-2.733L239.391,109.331
			L239.391,109.331z"/>
	</g>
</g>
</svg>
