<?xml version="1.0" encoding="utf-8"?>
<!-- Generator: Adobe Illustrator 16.0.0, SVG Export Plug-In . SVG Version: 6.00 Build 0)  -->
<!DOCTYPE svg PUBLIC "-//W3C//DTD SVG 1.1//EN" "http://www.w3.org/Graphics/SVG/1.1/DTD/svg11.dtd">
<svg version="1.1" id="Capa_1" xmlns="http://www.w3.org/2000/svg" xmlns:xlink="http://www.w3.org/1999/xlink" x="0px" y="0px"
	 width="346.957px" height="226.973px" viewBox="0 0 346.957 226.973" enable-background="new 0 0 346.957 226.973"
	 xml:space="preserve">
<g>
	<g>
		<path fill="#1D1D1B" stroke="#1D1D1B" stroke-width="0.3402" d="M105.828,71.607c-1.035-0.936-1.078-1.35-0.429-2.072
			c0.621-0.683,1.688-1.191,2.966-0.04c1.802,1.632,0.197,3.199-0.176,3.614c-0.092,0.102-0.223,0.218-0.353,0.313L105.828,71.607z
			 M112.477,78.734c0.616-0.684,1.083-0.966,1.958-1.934c3.026-3.354,0.609-5.604,0.352-5.838c-1.856-1.676-3.858-0.415-5.035,0.725
			c0.913-1.24,1.342-2.935,0.1-4.052c-1.208-1.097-2.99-0.781-4.619,1.023c-0.514,0.567-1.246,1.586-1.841,2.248
			c-0.559,0.62-1.01,0.963-1.708,1.735c-0.104,0.117-0.103,0.165,0.026,0.28l0.267,0.247c0.16,0.139,0.218,0.075,0.326-0.018
			c0.342-0.275,0.784-0.949,1.647-0.168l6.022,5.437c0.889,0.801,0.913,1.195,0.295,1.881c-0.116,0.126-0.148,0.214-0.059,0.296
			l0.323,0.292c0.115,0.104,0.161,0.055,0.278-0.079C111.336,80.23,111.499,79.819,112.477,78.734z M108.43,73.956
			c0.242-0.294,0.429-0.525,0.581-0.691c0.464-0.518,2.083-2.333,4.249-0.378c1.29,1.165,1.4,2.389,0.494,3.395
			c-0.045,0.052-1.175,1.424-2.266,0.434L108.43,73.956z"/>
		<path fill="#1D1D1B" stroke="#1D1D1B" stroke-width="0.3402" d="M124.613,54.976c2.477-1.261,5.559,0.388,7.127,3.472
			c1.192,2.334,0.462,4.927-1.593,5.976c-2.837,1.441-5.741-0.781-7.121-3.491C121.579,58.099,122.861,55.867,124.613,54.976z
			 M133.412,56.481c-1.497-2.942-5.305-4.217-8.759-2.457c-3.669,1.864-4.869,5.868-3.214,9.121c1.185,2.324,4.95,4.206,8.591,2.354
			C133.283,63.842,134.913,59.425,133.412,56.481z"/>
		<path fill="#1D1D1B" stroke="#1D1D1B" stroke-width="0.3402" d="M146.343,48.656c-0.255-1.226,0.204-1.603,1.806-1.934
			c2.755-0.555,5.016,1.127,5.689,4.429c0.693,3.405-1.035,5.725-3.193,6.166c-0.208,0.044-2.449,0.43-2.748-1.036L146.343,48.656z
			 M147.302,58.655c1.444-0.293,2.099-0.233,3.387-0.496c3.427-0.699,6.422-3.739,5.661-7.467c-0.691-3.388-3.906-5.677-8.691-4.699
			c-1.974,0.403-4.448,1.313-5.189,1.59c-0.132,0.045-0.109,0.092-0.081,0.213l0.066,0.305c0.03,0.153,0.052,0.184,0.189,0.157
			c0.119-0.026,0.327-0.121,0.5-0.157c0.833-0.169,0.988,1.022,1.014,1.142l1.599,7.848c0.188,0.917-0.238,1.183-0.778,1.401
			c-0.312,0.129-0.45,0.127-0.404,0.348l0.069,0.358c0.036,0.153,0.036,0.168,0.17,0.141
			C145.308,59.238,145.818,58.957,147.302,58.655z"/>
		<path fill="#1D1D1B" stroke="#1D1D1B" stroke-width="0.3402" d="M169.771,55.842c3.387,0,5.02,0.103,6.046,0.103
			c0.173,0,0.315,0.021,0.417-0.294l0.591-1.897c0.015-0.033,0.104-0.293,0.104-0.381c0-0.033-0.02-0.101-0.104-0.137l-0.454-0.192
			c-0.187,0-0.238,0.26-0.569,0.852c-0.628,1.129-1.48,1.146-2.745,1.15c-2.14,0-2.537,0.034-2.537-1.422l-0.002-3.671h1.633
			c0.644,0,1.129,0.051,1.316,0.438c0.422,0.85,0.111,1.144,0.386,1.144h0.383c0.122,0,0.122-0.07,0.122-0.261
			c0-0.381-0.023-1.197-0.023-1.755c0-0.523,0.056-1.318,0.056-1.546c0-0.173,0-0.227-0.159-0.227h-0.342
			c-0.286,0-0.057,0.35-0.301,0.816c-0.184,0.368-0.431,0.607-1.389,0.611h-1.682l-0.005-3.355c0-1.146,0.279-1.268,1.913-1.268
			c1.197,0,1.844,0.068,2.188,0.486c0.468,0.523,0.226,1.355,0.557,1.355h0.349c0.084,0,0.12-0.158,0.12-0.224l-0.002-2.193
			c0-0.155-0.085-0.192-0.205-0.192c-2.258,0.004-0.646,0.071-6.309,0.075c-0.975,0-1.685-0.054-2.17-0.054
			c-0.14,0-0.21,0.07-0.21,0.173v0.402c0,0.158,0.158,0.174,0.385,0.191c0.467,0.033,1.145,0.067,1.145,1.338l0.003,7.716
			c0,1.301-0.119,1.511-1.32,1.63c-0.226,0.018-0.382,0.054-0.382,0.177v0.431c0,0.143,0.072,0.16,0.157,0.16
			C167.272,56.021,168.294,55.842,169.771,55.842z"/>
		<path fill="#1D1D1B" stroke="#1D1D1B" stroke-width="0.3402" d="M192.802,58.249c-4.522-0.868-6.472-4.088-5.864-7.245
			c0.681-3.53,4.118-6.002,8.472-5.169c2.049,0.393,3.97,1.574,3.924,1.865l-0.241,2.181c0,0.106-0.068,0.198-0.158,0.202
			l-0.454-0.054c-0.237-0.026-0.035-2.747-3.244-3.363c-2.749-0.524-5.202,1.286-5.792,4.357c-0.604,3.176,0.934,5.93,3.479,6.416
			c2.782,0.533,3.007-1.404,3.062-1.676c0.334-1.739,0.124-1.819-1.703-2.166c-0.174-0.035-0.238-0.067-0.205-0.235l0.068-0.359
			c0.03-0.155,0.109-0.193,0.263-0.161c1.348,0.259,1.743,0.404,2.663,0.581c1.312,0.251,2.021,0.248,2.381,0.313
			c0.223,0.042,0.268,0.088,0.234,0.261l-0.067,0.354c-0.032,0.175-0.082,0.215-0.212,0.189c-0.583-0.109-1.078,0.007-1.184,0.554
			l-0.359,1.841c-0.037,0.188-0.09,0.957-0.105,1.042C197.714,58.201,195.379,58.743,192.802,58.249z"/>
		<path fill="#1D1D1B" stroke="#1D1D1B" stroke-width="0.3402" d="M208.542,62.262c0.752,0.325,0.985,0.523,1.54,0.762
			c0.163,0.068,0.254-0.007,0.268-0.037l0.162-0.382c0.057-0.132-0.01-0.194-0.17-0.267c-0.656-0.321-1.053-0.666-0.858-1.125
			c0.101-0.236,0.471-0.684,0.518-0.748l1.499-1.694l3.61,1.559l-0.036,2.573c-0.004,0.108-0.017,0.524-0.094,0.701
			c-0.268,0.623-0.873,0.322-1.242,0.161c-0.164-0.05-0.293-0.105-0.354,0.039l-0.173,0.398c-0.051,0.113,0.055,0.213,0.141,0.248
			c0.604,0.264,1.509,0.537,2.352,0.903c1.164,0.504,1.538,0.777,2.147,1.04c0.073,0.034,0.178,0.059,0.233-0.069l0.194-0.448
			c0.127-0.302-0.939-0.182-0.937-1.56l0.12-11.64c0.011-0.147-0.053-0.216-0.101-0.233c-0.082-0.036-0.177,0-0.347,0.042
			l-1.349,0.323c-0.307,0.4-0.929,1.227-1.915,2.292l-4.59,4.93c-0.147,0.167-0.969,1.021-1.449,0.983
			c-0.84-0.061-0.992-0.316-1.093-0.092l-0.147,0.354c-0.064,0.139,0,0.208,0.134,0.265
			C207.079,61.744,207.601,61.856,208.542,62.262z M215.094,59.396l-2.996-1.296l3.101-3.414L215.094,59.396z"/>
		<path fill="#1D1D1B" stroke="#1D1D1B" stroke-width="0.3402" d="M228.041,73.349c-0.797-0.617-1.812-1.778-1.972-2.563
			c0.524-0.845,1.007-1.673,1.086-1.771c0.085-0.109,0.117-0.15,0.223-0.088l0.376,0.221c0.172,0.113-0.055,0.353-0.102,1.092
			c-0.085,1.138,0.093,1.845,0.982,2.537c0.773,0.592,2.221,1.078,3.182-0.16c1.21-1.566-0.691-3.283-1.331-5.38
			c-0.359-1.131-0.227-2.147,0.481-3.072c1.298-1.677,3.496-1.884,5.495-0.344c1.361,1.052,1.7,2.348,1.651,2.402l-1.155,1.609
			c-0.115,0.149-0.188,0.162-0.271,0.121l-0.308-0.198c-0.295-0.159,0.206-0.518,0.275-1.567c0.024-0.833-0.381-1.501-0.89-1.894
			c-0.974-0.752-2.104-0.655-2.743,0.167c-1.181,1.526,0.812,3.414,1.39,5.592c0.293,1.152,0.212,1.993-0.505,2.93
			C232.664,74.589,230.216,75.026,228.041,73.349z"/>
	</g>
	<g>
		<path fill="#1D1D1B" d="M234.236,88.946c-3.258-1.887-5.286-0.119-5.286-0.119l-18.173,8.536
			c-2.171,1.216-4.479,0.269-4.479,0.269l-18.302-8.805c-2.441-1.361-4.615,0.119-4.615,0.119l-12.605,5.702
			c-1.627,0.674-1.897-0.408-1.897-0.408l-0.547-8.943c0-2.449,4.337-1.905,4.337-1.905l-15.181-13.155l-15.322,13.155
			c4.747,0.136,3.937,2.036,3.937,2.036l-2.41,25.402h-10.057c-7.401-7.403-17.543-6.583-17.543-6.583
			c-9.694,0-15.906,6.76-15.906,6.76H86.292v18.474l18.938-0.054v-14.155c4.422-4.863,11.17-4.645,11.17-4.645
			c7.855,0,12.383,4.754,12.383,4.754v13.828h12.615v3.434h30.75v-3.327h14.704v1.78h11.178v-1.669h19.575v1.435h11.054v-1.435
			h13.948v1.548h10.28v-1.659h8.638v-27.324h2.414L234.236,88.946z M156.298,89.773v6.75h-5.283v-6.75
			c0-1.412,1.261-2.417,2.639-2.417c1.389,0,2.644,0.94,2.644,2.324V89.773z M163.568,89.773v6.75h-5.282v-6.75h-0.005
			c0-1.412,1.269-2.417,2.644-2.417c1.385,0,2.644,0.94,2.644,2.324V89.773z M229.071,96.647c0-1.192,1.059-2.025,2.224-2.025
			c1.161,0,2.206,0.783,2.206,1.942l0.004,0.083v4.496h-4.434V96.647z M185.317,94.622c1.167,0,2.21,0.783,2.21,1.942l0.006,0.083
			v4.496h-4.431v-4.496h-0.005C183.098,95.455,184.164,94.622,185.317,94.622z M188.279,124.374h-6.722v-6.79h-0.008
			c0-1.814,1.62-3.089,3.37-3.089c1.755,0,3.349,1.197,3.349,2.955l0.011,0.134V124.374z M196.627,129.774h-7.458v-2.729h7.458
			V129.774z M190.255,110.547v-2.742h5.289v2.742H190.255z M193.348,111.458v15.454h-0.917v-15.454H193.348z M196.537,126.108
			c1.423-13.221,11.591-12.611,11.591-12.611c11.198,0,11.396,12.611,11.396,12.611H196.537z M227.07,129.774h-7.458v-2.729h7.458
			V129.774z M220.955,110.547v-2.742h5.295v2.742H220.955z M224.058,111.458v15.454h-0.91v-15.454H224.058z M234.648,124.374h-6.718
			v-6.79c0-1.814,1.605-3.089,3.364-3.089c1.75,0,3.34,1.197,3.34,2.955l0.014,0.134V124.374z M237.498,124.374v-6.79h-0.017
			c0-1.814,1.614-3.089,3.372-3.089c1.753,0,3.358,1.197,3.358,2.955v0.134v6.79H237.498z M251.513,129.774h-7.458v-2.729h7.458
			V129.774z M245.575,110.547v-2.742h5.276v2.742H245.575z M248.671,111.458v15.454h-0.92v-15.454H248.671z M261.069,107.395
			h-90.022v-1.088h90.022V107.395z"/>
	</g>
	<g>
		<path fill="#1D1D1B" stroke="#1D1D1B" stroke-width="0.5879" d="M91.401,174.212c0-2.029,0.082-2.72,2.318-2.72
			c3.356,0,6.098,2.142,6.098,6.192c0,3.226-1.893,6.096-5.615,6.096c-2.412,0-2.801-0.574-2.801-2.293V174.212z M90.628,184.436
			c1.857,0,2.531,0.117,3.499,0.117c4.897,0,7.655-3.243,7.655-6.752c0-4.653-3.975-7.063-8.043-7.063
			c-1.565,0-5.575,0.483-6.018,0.559c-0.117,0.021-0.16,0.042-0.137,0.156l0.02,0.407c0,0.071,0.054,0.112,0.211,0.112
			c0.097,0,0.519-0.057,0.731-0.057c1.258,0,1.2,1.003,1.2,2.296v7.275c0,1.848-0.31,2.216-1.254,2.392
			c-0.56,0.097-0.982,0.016-0.965,0.252l0.02,0.287c0.015,0.151,0.074,0.19,0.269,0.19
			C88.029,184.608,89.128,184.436,90.628,184.436z"/>
		<path fill="#1D1D1B" stroke="#1D1D1B" stroke-width="0.5879" d="M113.825,184.436c0.673,0,5.339,0.096,7.076,0.096
			c0.291,0,0.347-0.017,0.387-0.175l0.638-2.255c0.035-0.117,0.074-0.213,0.074-0.267c0-0.023-0.039-0.061-0.112-0.082l-0.23-0.097
			c-0.021,0-0.04-0.016-0.081-0.016c-0.096,0-0.23,0.327-0.405,0.635c-0.772,1.406-0.827,1.468-2.565,1.468h-1.873
			c-1.87,0-2.141-0.041-2.141-1.99v-3.876c0.657-0.039,1.294-0.039,1.701-0.039c2.16,0,2.254,0.097,2.447,1.542
			c0.02,0.175,0.058,0.233,0.193,0.233h0.23c0.138,0,0.195-0.038,0.195-0.191c0-0.48-0.021-1.448-0.021-1.872
			c0-0.735,0.119-1.604,0.119-1.855c0-0.057-0.018-0.109-0.135-0.109h-0.292c-0.129,0-0.152,0.053-0.25,0.283
			c-0.44,1.14-0.617,1.216-2.485,1.216c-0.369,0-1.2,0-1.701-0.035v-4.209c0-0.888,0.448-1.119,1.811-1.119
			c2.529,0,3.553,0.194,3.688,1.18c0.096,0.787,0.077,0.887,0.192,0.902l0.385,0.121c0.021,0,0.095,0.017,0.095-0.137v-2.566
			c0-0.174-0.038-0.19-0.884-0.19c-2.953,0-5.363,0.094-6.234,0.094c-0.732,0-2.312-0.094-2.507-0.094
			c-0.191,0-0.268,0.076-0.268,0.174v0.366c0,0.11,0.114,0.172,0.249,0.172c1.371,0,1.754,0.188,1.754,1.098v8.835
			c0,2.047-0.077,2.18-1.811,2.18c-0.211,0-0.293,0.063-0.293,0.195v0.291c0,0.174,0.061,0.212,0.293,0.212
			C111.815,184.553,112.875,184.436,113.825,184.436z"/>
		<path fill="#1D1D1B" stroke="#1D1D1B" stroke-width="0.5879" d="M138.671,180.808c0-1.678-0.616-2.22-1.756-3.183
			c-1.174-1.045-4.258-1.734-4.258-3.875c0-1.778,1.732-2.281,2.368-2.281c0.866,0,1.68,0.564,2.082,1.432
			c0.407,0.868,0.254,0.999,0.485,0.999h0.27c0.098,0,0.13-0.034,0.13-0.149l-0.147-2.372c-0.119-0.138-1.005-0.641-2.452-0.641
			c-2.275,0-4.227,1.162-4.227,3.955c0,1.564,1.024,2.585,2.314,3.222c1.374,0.674,3.511,1.754,3.511,3.513
			c0,1.35-0.923,2.68-2.794,2.68c-0.812,0-1.584-0.595-2.006-1.154c-0.697-0.928-0.562-1.431-0.774-1.431
			c-0.039,0-0.06,0.021-0.076,0.021l-0.29,0.077c-0.096,0.021-0.119,0.077-0.119,0.133c0,0.059,0,0.097,0.022,0.136
			c0.115,0.524,0.306,1.872,0.306,2.177c0.29,0.215,1.623,0.755,3.051,0.755C135.934,184.821,138.671,183.722,138.671,180.808z"/>
		<path fill="#1D1D1B" stroke="#1D1D1B" stroke-width="0.5879" d="M151.364,174.212c0-2.029,0.078-2.72,2.317-2.72
			c3.356,0,6.093,2.142,6.093,6.192c0,3.226-1.89,6.096-5.614,6.096c-2.412,0-2.796-0.574-2.796-2.293V174.212z M150.592,184.436
			c1.854,0,2.531,0.117,3.494,0.117c4.896,0,7.657-3.243,7.657-6.752c0-4.653-3.973-7.063-8.044-7.063
			c-1.562,0-5.576,0.483-6.02,0.559c-0.117,0.021-0.153,0.042-0.135,0.156l0.018,0.407c0,0.071,0.063,0.112,0.213,0.112
			c0.097,0,0.523-0.057,0.733-0.057c1.254,0,1.199,1.003,1.199,2.296v7.275c0,1.848-0.309,2.216-1.256,2.392
			c-0.561,0.097-0.984,0.016-0.966,0.252l0.021,0.287c0.02,0.151,0.076,0.19,0.269,0.19
			C147.987,184.608,149.09,184.436,150.592,184.436z"/>
		<path fill="#1D1D1B" stroke="#1D1D1B" stroke-width="0.5879" d="M171.023,184.553c-0.231,0-0.29-0.038-0.29-0.212v-0.291
			c0-0.133,0.078-0.195,0.29-0.195c1.733,0,1.815-0.133,1.815-2.18v-8.835c0-0.909-0.388-1.098-1.756-1.098
			c-0.136,0-0.252-0.062-0.252-0.172v-0.366c0-0.098,0.077-0.174,0.271-0.174c0.191,0,1.778,0.094,2.509,0.094
			c0.869,0,3.278-0.094,6.229-0.094c0.849,0,0.887,0.017,0.887,0.19v2.566c0,0.153-0.079,0.137-0.096,0.137l-0.384-0.121
			c-0.121-0.016-0.101-0.115-0.197-0.902c-0.134-0.985-1.152-1.18-3.683-1.18c-1.368,0-1.812,0.231-1.812,1.119v4.209
			c0.501,0.035,1.331,0.035,1.699,0.035c1.871,0,2.045-0.076,2.485-1.216c0.097-0.23,0.117-0.283,0.255-0.283h0.287
			c0.115,0,0.135,0.053,0.135,0.109c0,0.251-0.115,1.12-0.115,1.855c0,0.424,0.019,1.392,0.019,1.872
			c0,0.153-0.058,0.191-0.194,0.191h-0.229c-0.137,0-0.177-0.059-0.198-0.233c-0.189-1.445-0.286-1.542-2.444-1.542
			c-0.409,0-1.046,0-1.699,0.039v3.876c0,1.949,0.271,1.99,2.139,1.99h1.872c1.735,0,1.797-0.062,2.564-1.468
			c0.176-0.308,0.309-0.635,0.405-0.635c0.046,0,0.062,0.016,0.081,0.016l0.23,0.097c0.077,0.021,0.115,0.059,0.115,0.082
			c0,0.054-0.038,0.149-0.078,0.267l-0.639,2.255c-0.032,0.158-0.095,0.175-0.379,0.175c-1.741,0-6.408-0.096-7.082-0.096
			C172.838,184.436,171.775,184.553,171.023,184.553z"/>
		<path fill="#1D1D1B" stroke="#1D1D1B" stroke-width="0.5879" d="M205.636,184.569c-0.196,0-0.271-0.016-0.271-0.212v-0.267
			c0-0.173,0.075-0.212,0.309-0.212c1.253,0,1.676-0.232,1.676-1.315v-9.164c-0.539,0.429-1.81,1.258-2.006,1.258
			c-0.035,0-0.075-0.037-0.115-0.118l-0.132-0.248c-0.019-0.079-0.04-0.117-0.04-0.156c0-0.058,0.057-0.097,0.159-0.154
			c0.749-0.504,2.095-1.43,3.121-2.473c0.059-0.038,0.134-0.038,0.189-0.038h0.25c0.059,0,0.117,0,0.117,0.078v11.016
			c0,0.752,0.18,1.315,1.602,1.315c0.236,0,0.271,0.016,0.271,0.132v0.371c0,0.15-0.034,0.188-0.327,0.188
			c-0.73,0-1.021-0.133-2.276-0.133C207.297,184.436,206.388,184.569,205.636,184.569z"/>
		<path fill="#1D1D1B" stroke="#1D1D1B" stroke-width="0.5879" d="M224.08,178.589c1.211,0.737,2.622,1.796,2.622,3.283
			c0,1.216-0.794,2.065-1.971,2.065c-1.345,0-2.197-1.16-2.197-2.49C222.534,179.806,223.65,178.824,224.08,178.589z
			 M228.113,181.213c0-1.812-1.411-2.849-2.567-3.587c0.813-0.48,2.467-1.601,2.467-3.317c0-1.523-1.231-2.839-3.126-2.839
			c-2.045,0-3.53,1.567-3.53,3.3c0,1.64,1.369,2.856,2.259,3.475c-0.599,0.232-2.434,1.699-2.434,3.432
			c0,1.546,1.487,2.974,3.453,2.974C226.569,184.649,228.113,183.05,228.113,181.213z M224.635,172.128
			c1.199,0,2.044,0.984,2.044,2.451c0,1.29-0.901,2.257-1.538,2.663c-1.215-0.661-2.432-1.834-2.432-3.068
			C222.709,172.901,223.65,172.128,224.635,172.128z"/>
		<path fill="#1D1D1B" stroke="#1D1D1B" stroke-width="0.5879" d="M241.075,178.589c1.213,0.737,2.625,1.796,2.625,3.283
			c0,1.216-0.793,2.065-1.969,2.065c-1.351,0-2.2-1.16-2.2-2.49C239.531,179.806,240.65,178.824,241.075,178.589z M245.106,181.213
			c0-1.812-1.406-2.849-2.567-3.587c0.811-0.48,2.471-1.601,2.471-3.317c0-1.523-1.233-2.839-3.127-2.839
			c-2.042,0-3.531,1.567-3.531,3.3c0,1.64,1.374,2.856,2.259,3.475c-0.596,0.232-2.431,1.699-2.431,3.432
			c0,1.546,1.486,2.974,3.45,2.974C243.562,184.649,245.106,183.05,245.106,181.213z M241.63,172.128
			c1.202,0,2.049,0.984,2.049,2.451c0,1.29-0.903,2.257-1.544,2.663c-1.217-0.661-2.43-1.834-2.43-3.068
			C239.705,172.901,240.65,172.128,241.63,172.128z"/>
		<path fill="#1D1D1B" stroke="#1D1D1B" stroke-width="0.5879" d="M258.068,178.589c1.217,0.737,2.632,1.796,2.632,3.283
			c0,1.216-0.798,2.065-1.969,2.065c-1.358,0-2.206-1.16-2.206-2.49C256.525,179.806,257.644,178.824,258.068,178.589z
			 M262.103,181.213c0-1.812-1.402-2.849-2.564-3.587c0.806-0.48,2.471-1.601,2.471-3.317c0-1.523-1.24-2.839-3.128-2.839
			c-2.047,0-3.529,1.567-3.529,3.3c0,1.64,1.371,2.856,2.261,3.475c-0.604,0.232-2.436,1.699-2.436,3.432
			c0,1.546,1.485,2.974,3.454,2.974C260.556,184.649,262.103,183.05,262.103,181.213z M258.631,172.128
			c1.191,0,2.044,0.984,2.044,2.451c0,1.29-0.907,2.257-1.548,2.663c-1.21-0.661-2.423-1.834-2.423-3.068
			C256.704,172.901,257.644,172.128,258.631,172.128z"/>
	</g>
	<g>
		<g>
			<path fill="#1D1D1B" stroke="#1D1D1B" stroke-width="0.6977" d="M26.969,143.497H15.847v0.594h0.118
				c0.512,0,1.122,0.04,1.421,0.138c0.316,0.121,0.72,0.328,1.223,0.618c0.52,0.289,0.875,0.489,1.048,0.644l0.664,0.513v8.881
				c0,2.845-1.569,4.342-4.681,4.422v0.565h9.847v-0.565c-2.81-0.03-4.292-1.548-4.292-4.422v-8.262l17.46,13.782h0.641v-11.897
				c0-2.035,0.934-3.519,2.528-4.108c0.7-0.243,1.048-0.279,2.16-0.308v-0.594h-9.863v0.594c2.82,0.028,4.309,1.541,4.309,4.416v4
				L26.969,143.497z"/>
			<path fill="#1D1D1B" stroke="#1D1D1B" stroke-width="0.6977" d="M58.509,159.446h-0.701c-1.141,0-1.588-0.08-1.931-0.335
				c-0.402-0.303-0.549-0.688-0.549-1.71v-7.326c0-1.061,0.147-1.478,0.549-1.731c0.385-0.262,0.79-0.32,1.931-0.32h0.701v-0.437
				h-11.48v0.437h0.693c1.161,0,1.604,0.082,1.96,0.32c0.4,0.291,0.525,0.671,0.525,1.731v7.326c0,1.022-0.125,1.451-0.525,1.71
				c-0.41,0.255-0.8,0.335-1.96,0.335h-0.693v0.425h11.48V159.446z"/>
			<path fill="#1D1D1B" stroke="#1D1D1B" stroke-width="0.6977" d="M79.24,147.587H61.138v0.437h0.681
				c1.161,0,1.604,0.082,1.969,0.32c0.392,0.291,0.521,0.671,0.521,1.731v7.326c0,1.022-0.129,1.451-0.521,1.71
				c-0.421,0.255-0.809,0.335-1.969,0.335h-0.681v0.425l18.3-0.002v-4.493h-0.483c-0.931,1.031-2.004,1.935-3.242,2.721
				c-1.225,0.805-2.123,1.127-3.444,1.27c-0.402,0.061-0.765,0.08-1.112,0.08h-1.726v-5.807h0.562c0.866,0,1.392,0.128,2.095,0.495
				c0.484,0.243,0.893,0.563,1.267,0.896c0.304,0.266,0.42,0.4,0.656,0.769h0.524v-4.734H74.01
				c-0.524,0.739-1.171,1.325-1.834,1.675c-0.63,0.317-1.311,0.459-2.184,0.459h-0.562v-5.175h2.291
				c1.591,0,2.372,0.228,3.658,1.089c1.312,0.851,2.385,1.768,3.407,2.936h0.454V147.587z"/>
			<path fill="#1D1D1B" stroke="#1D1D1B" stroke-width="0.6977" d="M100.421,147.587H82.078V153h0.498
				c0.346-0.74,0.471-0.996,0.811-1.496c0.671-1.003,1.653-2,2.702-2.76c0.74-0.53,1.345-0.721,2.219-0.721h0.347v9.378
				c0,1.047-0.128,1.451-0.524,1.71c-0.409,0.255-0.806,0.335-1.953,0.335h-0.7v0.423h11.488v-0.423h-0.704
				c-1.152,0-1.59-0.08-1.963-0.335c-0.389-0.303-0.514-0.688-0.514-1.71v-9.378h0.393c0.675,0,1.211,0.138,1.736,0.45
				c0.684,0.408,1.57,1.144,2.18,1.778c0.851,0.904,1.545,1.937,1.842,2.748h0.486V147.587z"/>
			<path fill="#1D1D1B" stroke="#1D1D1B" stroke-width="0.6977" d="M116.974,153.723v0.237c0,3.751-1.39,5.874-3.867,5.874
				c-1.482,0-2.426-0.594-3.078-1.96c-0.569-1.213-0.912-2.758-0.912-4.176c0-2.595,0.996-4.969,2.412-5.752
				c0.337-0.174,1.049-0.315,1.611-0.315C115.48,147.632,116.895,149.891,116.974,153.723z M112.627,147.205
				c-2.694,0-4.672,0.451-6.375,1.514c-2.023,1.229-3.134,2.987-3.134,4.96c0,1.896,1.027,3.59,2.927,4.812
				c1.911,1.251,4.102,1.789,7.274,1.789c2.81,0,4.884-0.444,6.429-1.353c1.92-1.121,3.072-3.021,3.072-5.037
				C122.82,149.855,118.772,147.205,112.627,147.205z"/>
			<path fill="#1D1D1B" stroke="#1D1D1B" stroke-width="0.6977" d="M161.898,143.221h-0.474l-3.445,2.238
				c-2.708-1.694-5.354-2.479-8.37-2.479c-5.259,0-9.068,2.43-9.068,5.764c0,2.999,2.638,4.745,8.196,5.428l5.584,0.656
				c0.841,0.121,2.15,0.35,3.189,0.568c0.615,0.149,1.164,0.324,1.659,0.538c0.792,0.38,1.193,0.912,1.193,1.597
				c0,1.476-1.858,2.287-5.262,2.287c-2.584,0-4.713-0.473-7.011-1.576c-1.361-0.654-2.61-1.447-3.775-2.38
				c-1.242-1.034-1.655-1.447-2.465-2.622h-0.699v6.748h0.699l3.807-2.381l0.256,0.15c2.038,1.22,3.2,1.737,5.09,2.182
				c1.345,0.296,2.732,0.465,4.159,0.465c5.486,0,8.83-2.062,8.83-5.469c0-2.187-1.375-3.802-3.976-4.612
				c-1.368-0.415-3.122-0.812-4.707-1.03l-4.973-0.666c-2.441-0.338-3.635-0.566-4.592-0.931c-0.839-0.319-1.394-0.958-1.394-1.618
				c0-1.521,2.066-2.532,5.17-2.532c3.399,0,6.856,1.224,9.442,3.363c1,0.813,1.401,1.252,2.33,2.474h0.607V143.221z"/>
			<path fill="#1D1D1B" stroke="#1D1D1B" stroke-width="0.6977" d="M184.583,147.587h-18.119v0.437h0.692
				c1.16,0,1.597,0.082,1.965,0.32c0.388,0.291,0.522,0.671,0.522,1.731v7.326c0,1.022-0.134,1.451-0.522,1.71
				c-0.411,0.255-0.805,0.335-1.965,0.335h-0.692v0.423h18.299v-4.493h-0.473c-0.938,1.031-2.003,1.935-3.25,2.721
				c-1.216,0.805-2.104,1.127-3.439,1.27c-0.395,0.061-0.765,0.08-1.104,0.08h-1.735v-5.807h0.564c0.852,0,1.383,0.128,2.097,0.495
				c0.479,0.243,0.898,0.563,1.269,0.896c0.304,0.266,0.411,0.4,0.645,0.769h0.534v-4.734h-0.534
				c-0.514,0.739-1.17,1.325-1.824,1.675c-0.631,0.317-1.32,0.459-2.186,0.459h-0.564v-5.175h2.293c1.593,0,2.377,0.228,3.666,1.089
				c1.306,0.851,2.369,1.768,3.392,2.936h0.471V147.587z"/>
			<path fill="#1D1D1B" stroke="#1D1D1B" stroke-width="0.6977" d="M196.181,147.587h-8.342v0.437h0.083
				c0.398,0,0.858,0.045,1.073,0.124c0.247,0.082,0.543,0.232,0.913,0.45c0.4,0.219,0.664,0.368,0.794,0.481l0.496,0.389v6.656
				c0,2.134-1.175,3.266-3.51,3.322v0.423h7.385v-0.423c-2.113-0.02-3.226-1.167-3.226-3.322v-6.204l13.096,10.359h0.482v-8.933
				c0-1.534,0.698-2.628,1.896-3.072c0.529-0.192,0.795-0.234,1.618-0.251v-0.437h-7.395v0.437c2.122,0.017,3.234,1.16,3.234,3.323
				v2.997L196.181,147.587z"/>
			<path fill="#1D1D1B" stroke="#1D1D1B" stroke-width="0.6977" d="M229.672,147.587h-18.119v0.437h0.699
				c1.152,0,1.59,0.082,1.948,0.32c0.396,0.291,0.538,0.671,0.538,1.731v7.326c0,1.022-0.143,1.451-0.538,1.71
				c-0.403,0.255-0.796,0.335-1.948,0.335h-0.699v0.423h18.312v-4.493h-0.475c-0.945,1.031-2.009,1.935-3.256,2.721
				c-1.222,0.805-2.112,1.127-3.453,1.27c-0.378,0.061-0.756,0.08-1.101,0.08h-1.722v-5.807h0.563c0.851,0,1.371,0.128,2.098,0.495
				c0.488,0.243,0.881,0.563,1.268,0.896c0.294,0.266,0.407,0.4,0.652,0.769h0.512v-4.734h-0.512
				c-0.529,0.739-1.178,1.325-1.845,1.675c-0.637,0.317-1.298,0.459-2.173,0.459h-0.563v-5.175h2.288
				c1.593,0,2.378,0.228,3.655,1.089c1.317,0.851,2.375,1.768,3.411,2.936h0.459V147.587z"/>
			<path fill="#1D1D1B" stroke="#1D1D1B" stroke-width="0.6977" d="M250.852,147.587h-18.349V153h0.503
				c0.346-0.74,0.479-0.996,0.807-1.496c0.67-1.003,1.649-2,2.703-2.76c0.737-0.53,1.344-0.721,2.219-0.721h0.348v9.378
				c0,1.047-0.131,1.451-0.521,1.71c-0.421,0.255-0.813,0.335-1.965,0.335h-0.698v0.423h11.486v-0.423h-0.695
				c-1.155,0-1.596-0.08-1.964-0.335c-0.396-0.303-0.514-0.688-0.514-1.71v-9.378h0.378c0.687,0,1.229,0.138,1.746,0.45
				c0.669,0.408,1.571,1.144,2.181,1.778c0.861,0.904,1.553,1.937,1.833,2.748h0.502V147.587z"/>
			<path fill="#1D1D1B" stroke="#1D1D1B" stroke-width="0.6977" d="M264.674,159.446h-0.709c-1.149,0-1.589-0.08-1.926-0.335
				c-0.422-0.303-0.542-0.688-0.542-1.71v-7.326c0-1.061,0.12-1.478,0.542-1.731c0.387-0.262,0.776-0.32,1.926-0.32h0.709v-0.437
				h-11.488v0.437h0.692c1.161,0,1.59,0.082,1.962,0.32c0.391,0.291,0.525,0.671,0.525,1.731v7.326c0,1.022-0.135,1.451-0.525,1.71
				c-0.409,0.255-0.801,0.335-1.962,0.335h-0.692v0.423h11.488V159.446z"/>
			<path fill="#1D1D1B" stroke="#1D1D1B" stroke-width="0.6977" d="M275.789,147.587h-8.338v0.437h0.071
				c0.388,0,0.844,0.045,1.071,0.124c0.234,0.082,0.535,0.232,0.915,0.45c0.388,0.219,0.649,0.368,0.782,0.481l0.504,0.389v6.656
				c0,2.134-1.174,3.266-3.515,3.322v0.423h7.395v-0.423c-2.113-0.02-3.224-1.167-3.224-3.322v-6.204l13.099,10.359h0.479v-8.933
				c0-1.534,0.688-2.628,1.9-3.072c0.519-0.192,0.782-0.234,1.617-0.251v-0.437h-7.394v0.437c2.109,0.017,3.221,1.16,3.221,3.323
				v2.997L275.789,147.587z"/>
			<path fill="#1D1D1B" stroke="#1D1D1B" stroke-width="0.6977" d="M309.264,147.587h-18.115v0.437h0.699
				c1.147,0,1.588,0.082,1.956,0.32c0.4,0.291,0.518,0.671,0.518,1.731v7.326c0,1.022-0.117,1.451-0.518,1.71
				c-0.415,0.255-0.809,0.335-1.956,0.335h-0.699v0.423h18.31v-4.493h-0.473c-0.94,1.031-1.997,1.935-3.26,2.721
				c-1.219,0.805-2.108,1.127-3.442,1.27c-0.389,0.061-0.759,0.08-1.112,0.08h-1.72v-5.807h0.564c0.857,0,1.384,0.128,2.104,0.495
				c0.466,0.243,0.884,0.563,1.259,0.896c0.312,0.266,0.425,0.4,0.646,0.769h0.532v-4.734h-0.532
				c-0.519,0.737-1.176,1.325-1.825,1.675c-0.626,0.317-1.305,0.459-2.185,0.459h-0.564v-5.175h2.299
				c1.58,0,2.364,0.228,3.654,1.089c1.31,0.851,2.372,1.768,3.404,2.934h0.455V147.587z"/>
			<path fill="#1D1D1B" stroke="#1D1D1B" stroke-width="0.6977" d="M320.688,153.639v-5.616h1.169c1.267,0,1.902,0.138,2.513,0.538
				c0.719,0.481,1.126,1.31,1.126,2.304c0,1.859-1.126,2.774-3.437,2.774H320.688z M312.38,147.587v0.437h0.695
				c1.16,0,1.597,0.082,1.965,0.32c0.389,0.291,0.518,0.671,0.518,1.731v7.326c0,1.022-0.129,1.451-0.518,1.71
				c-0.416,0.255-0.805,0.335-1.965,0.335h-0.695v0.423h10.93v-0.423h-0.137c-1.161,0-1.599-0.08-1.939-0.335
				c-0.421-0.303-0.546-0.688-0.546-1.71v-3.334h1.169l3.798,5.802h6.914v-0.423c-1.484-0.036-2.254-0.404-2.902-1.442l-2.509-3.978
				c2.592-0.372,3.946-1.487,3.946-3.238c0-1.265-0.899-2.344-2.252-2.798c-0.763-0.241-1.577-0.358-2.432-0.383
				c-0.391,0-1.028-0.021-1.945-0.021H312.38z"/>
		</g>
	</g>
</g>
</svg>
