<?xml version="1.0" encoding="utf-8"?>
<!-- Generator: Adobe Illustrator 16.0.0, SVG Export Plug-In . SVG Version: 6.00 Build 0)  -->
<!DOCTYPE svg PUBLIC "-//W3C//DTD SVG 1.1//EN" "http://www.w3.org/Graphics/SVG/1.1/DTD/svg11.dtd">
<svg version="1.1" id="Capa_1" xmlns="http://www.w3.org/2000/svg" xmlns:xlink="http://www.w3.org/1999/xlink" x="0px" y="0px"
	 width="20px" height="20px" viewBox="0 0 20 20" enable-background="new 0 0 20 20" xml:space="preserve">
<path fill="#FFFFFF" d="M16.193,3.006c0.459-0.153,0.893-0.344,1.301-0.574c0.178-0.1,0.381-0.152,0.611-0.152
	c0.279,0,0.535,0.091,0.764,0.269c0.406,0.332,0.535,0.764,0.383,1.299c0.355,0.23,0.535,0.561,0.535,0.994
	c0,0.281-0.076,0.523-0.229,0.725c-0.436,0.612-0.945,1.161-1.529,1.646c0,1.351-0.268,2.662-0.803,3.936
	c-0.535,1.274-1.268,2.421-2.197,3.439c-0.932,1.02-2.109,1.843-3.537,2.465c-1.426,0.626-2.98,0.938-4.662,0.938
	c-2.191,0-4.203-0.574-6.037-1.721c-0.256-0.153-0.43-0.362-0.516-0.63c-0.092-0.268-0.084-0.54,0.018-0.822
	c0.178-0.536,0.559-0.803,1.146-0.803c0.051,0,0.1,0,0.152,0c0.203,0.026,0.434,0.038,0.689,0.038c0.459,0,0.891-0.051,1.299-0.153
	c-0.662-0.56-1.123-1.247-1.375-2.063c-0.078-0.229-0.092-0.445-0.039-0.649C1.326,10.294,0.906,9.25,0.906,8.05V8.013
	c0-0.33,0.102-0.612,0.307-0.841c-0.18-0.509-0.268-1.044-0.268-1.606c0-0.839,0.215-1.616,0.648-2.331
	C1.797,2.88,2.115,2.688,2.549,2.662c0.025,0,0.051,0,0.078,0c0.383,0,0.699,0.14,0.955,0.419c1.299,1.556,2.967,2.551,5.006,2.982
	c0.154-1.147,0.676-2.108,1.568-2.886c0.891-0.776,1.936-1.166,3.133-1.166C14.359,2.012,15.328,2.344,16.193,3.006z M10.805,4.247
	c-0.688,0.677-1.031,1.486-1.031,2.429c0,0.255,0.037,0.51,0.115,0.764C8.436,7.363,7.086,7.014,5.836,6.389
	C4.588,5.765,3.518,4.931,2.627,3.885C2.32,4.396,2.168,4.955,2.168,5.565c0,1.225,0.521,2.18,1.566,2.867
	c-0.586-0.024-1.121-0.164-1.605-0.42V8.05c0,0.818,0.268,1.536,0.803,2.161c0.535,0.624,1.211,1.013,2.027,1.166
	c-0.307,0.075-0.627,0.114-0.957,0.114c-0.205,0-0.42-0.013-0.65-0.039c0.23,0.688,0.645,1.248,1.242,1.682s1.281,0.664,2.047,0.688
	c-1.275,0.969-2.729,1.452-4.357,1.452c-0.281,0-0.561-0.012-0.842-0.038c1.629,1.02,3.428,1.527,5.389,1.527
	c1.555,0,2.98-0.292,4.281-0.878c1.299-0.585,2.35-1.351,3.152-2.292c0.803-0.943,1.428-1.981,1.873-3.116
	c0.445-1.133,0.67-2.273,0.67-3.42c0-0.153,0-0.307,0-0.46c0.688-0.481,1.271-1.069,1.758-1.757
	c-0.639,0.281-1.313,0.457-2.025,0.535c0.764-0.433,1.285-1.058,1.566-1.873c-0.689,0.382-1.441,0.664-2.256,0.842
	c-0.688-0.74-1.541-1.11-2.561-1.11C12.32,3.234,11.492,3.573,10.805,4.247z"/>
</svg>
