<?xml version="1.0" encoding="utf-8"?>
<!-- Generator: Adobe Illustrator 16.0.0, SVG Export Plug-In . SVG Version: 6.00 Build 0)  -->
<!DOCTYPE svg PUBLIC "-//W3C//DTD SVG 1.1//EN" "http://www.w3.org/Graphics/SVG/1.1/DTD/svg11.dtd">
<svg version="1.1" id="Capa_1" xmlns="http://www.w3.org/2000/svg" xmlns:xlink="http://www.w3.org/1999/xlink" x="0px" y="0px"
	 width="48px" height="48px" viewBox="-10 -10 48 48" enable-background="new -10 -10 48 48" xml:space="preserve">
<path display="none" fill="#FFFFFF" d="M15-8C2.85-8-7,1.85-7,14c0,12.15,9.85,22,22,22c12.15,0,22-9.85,22-22C37,1.85,27.15-8,15-8
	z M19.568,15H16v12h-5V15H9v-3h2V9.156C11,5.923,12.813,4,16.723,4H20v4h-2.057c-1.521,0-1.623,0.768-1.623,1.802L16.314,12H20
	L19.568,15z"/>
<path fill="#FFFFFF" d="M14-8C1.85-8-8,1.85-8,14c0,12.15,9.85,22,22,22c12.15,0,22-9.85,22-22C36,1.85,26.15-8,14-8z M22.85,10.484
	c0.01,0.193,0.012,0.39,0.012,0.587C22.861,17.076,18.529,24,10.604,24C8.172,24,5.906,23.247,4,21.959
	c0.336,0.043,0.68,0.063,1.027,0.063c2.019,0,3.876-0.726,5.352-1.944c-1.887-0.035-3.478-1.351-4.024-3.154
	c0.261,0.054,0.532,0.08,0.81,0.08c0.395,0,0.853-0.053,1.215-0.16C6.405,16.426,5,14.589,5,12.387v-0.056
	c0,0.338,1.168,0.545,1.874,0.568c-1.156-0.816-1.956-2.208-1.956-3.783c0-0.832,0.192-1.612,0.563-2.286
	c2.126,2.751,5.29,4.558,8.871,4.748c-0.074-0.331-0.115-0.678-0.115-1.035C14.236,8.035,16.162,6,18.541,6
	c1.24,0,2.359,0.551,3.145,1.435c0.981-0.204,1.901-0.581,2.734-1.102c-0.32,1.061-1.004,1.951-1.893,2.513
	c0.869-0.11,1.699-0.354,2.473-0.715C24.424,9.042,23.691,9.843,22.85,10.484z"/>
<g display="none">
	<path display="inline" fill="#FFFFFF" d="M15,17.695c2.039,0,3.697-1.658,3.697-3.695c0-0.805-0.262-1.548-0.701-2.156
		c-0.671-0.931-1.764-1.541-2.996-1.541c-1.233,0-2.325,0.61-2.996,1.541c-0.438,0.607-0.699,1.351-0.699,2.156
		C11.305,16.037,12.963,17.695,15,17.695z"/>
	<polygon display="inline" fill="#FFFFFF" points="23,9.479 23,5.919 22.57,5.921 19.492,5.93 19.479,9.49 	"/>
	<path display="inline" fill="#FFFFFF" d="M15-8C2.85-8-7,1.85-7,14c0,12.15,9.85,22,22,22c12.15,0,22-9.85,22-22
		C37,1.85,27.15-8,15-8z M25,20.441C25,22.68,23.68,25,21.441,25H8.559C6.321,25,4,22.68,4,20.441V7.559C4,5.32,6.321,4,8.559,4
		h12.882C23.68,4,25,5.32,25,7.559V20.441z"/>
	<path display="inline" fill="#FFFFFF" d="M20.742,14.078c0,3.166-2.575,5.703-5.742,5.703c-3.166,0-5.741-2.518-5.741-5.684
		C9.259,13.335,9.41,13,9.682,12H7v8.441C7,21.552,7.449,22,8.559,22h12.882C22.552,22,23,21.552,23,20.441V12h-2.682
		C20.588,13,20.742,13.316,20.742,14.078z"/>
</g>
</svg>
