<?xml version="1.0" encoding="utf-8"?>
<!-- Generator: Adobe Illustrator 16.0.0, SVG Export Plug-In . SVG Version: 6.00 Build 0)  -->
<!DOCTYPE svg PUBLIC "-//W3C//DTD SVG 1.1//EN" "http://www.w3.org/Graphics/SVG/1.1/DTD/svg11.dtd">
<svg version="1.1" id="Capa_1" xmlns="http://www.w3.org/2000/svg" xmlns:xlink="http://www.w3.org/1999/xlink" x="0px" y="0px"
	 width="560px" height="560px" viewBox="0 0 560 560" enable-background="new 0 0 560 560" xml:space="preserve">
<g opacity="0.3">
	<path fill="#FFFFFF" d="M462.787,106.183v11.601h-4.971v-11.601h-11.733v-5.237h11.733v-11.6h4.971v11.6h11.667v5.237H462.787z"/>
	<path fill="#FFFFFF" d="M318.061,332.453v11.602h-4.971v-11.602h-11.732v-5.237h11.732v-11.6h4.971v11.6h11.667v5.237H318.061z"/>
	<path fill="#FFFFFF" d="M470.887,386.884v11.603h-4.971v-11.603h-11.733v-5.235h11.733v-11.601h4.971v11.601h11.667v5.235H470.887z
		"/>
	<path fill="#FFFFFF" d="M332.247,155.552v11.602h-4.972v-11.602h-11.733v-5.236h11.733v-11.6h4.972v11.6h11.666v5.236H332.247z"/>
	<path fill="#FFFFFF" d="M181.779,209.235v11.6h-4.972v-11.6h-11.733v-5.237h11.733v-11.6h4.972v11.6h11.667v5.237H181.779z"/>
	<path fill="#FFFFFF" d="M195.965,366.391v11.603h-4.972v-11.603H179.26v-5.236h11.733v-11.6h4.972v11.6h11.667v5.236H195.965z"/>
	<path fill="#FFFFFF" d="M85.41,487.492v11.601h-4.972v-11.601H68.705v-5.237h11.733v-11.6h4.972v11.6h11.666v5.237H85.41z"/>
	<path fill="#FFFFFF" d="M167.594,77.745v11.601h-4.972V77.745h-11.733v-5.237h11.733v-11.6h4.972v11.6h11.667v5.237H167.594z"/>
</g>
</svg>
