<?xml version="1.0" encoding="utf-8"?>
<!-- Generator: Adobe Illustrator 16.0.0, SVG Export Plug-In . SVG Version: 6.00 Build 0)  -->
<!DOCTYPE svg PUBLIC "-//W3C//DTD SVG 1.1//EN" "http://www.w3.org/Graphics/SVG/1.1/DTD/svg11.dtd">
<svg version="1.1" id="Capa_1" xmlns="http://www.w3.org/2000/svg" xmlns:xlink="http://www.w3.org/1999/xlink" x="0px" y="0px"
	 width="560px" height="560px" viewBox="0 0 560 560" enable-background="new 0 0 560 560" xml:space="preserve">
<path opacity="0.3" fill="#FFFFFF" enable-background="new    " d="M264.885,295h-17.131h-7.599h-17.131
	c-3.794,0-6.869,3.215-6.869,7.5c0,4.283,3.075,7.5,6.869,7.5h17.131h7.599h17.131c3.793,0,6.869-3.215,6.869-7.5
	C271.754,298.217,268.678,295,264.885,295z"/>
<path opacity="0.3" fill="#FFFFFF" enable-background="new    " d="M278.504,301.895c0,4.532,3.253,8.205,7.268,8.205h6.51
	c4.015,0,7.269-3.673,7.269-8.205l0,0c0-4.529-3.254-8.203-7.269-8.203h-6.51C281.757,293.689,278.504,297.364,278.504,301.895
	L278.504,301.895z"/>
<path opacity="0.3" fill="#FFFFFF" enable-background="new    " d="M400.955,302.343c0,4.532,3.254,8.205,7.268,8.205h6.511
	c4.014,0,7.268-3.673,7.268-8.205l0,0c0-4.53-3.254-8.204-7.268-8.204h-6.511C404.209,294.139,400.955,297.813,400.955,302.343
	L400.955,302.343z"/>
<path opacity="0.3" fill="#FFFFFF" enable-background="new    " d="M95.488,84.333c0,4.532,3.253,8.205,7.268,8.205h13.509
	c4.015,0,7.269-3.673,7.269-8.205l0,0c0-4.53-3.254-8.204-7.269-8.204h-13.509C98.741,76.129,95.488,79.803,95.488,84.333
	L95.488,84.333z"/>
<path opacity="0.3" fill="#FFFFFF" enable-background="new    " d="M261.23,174.795c0,4.532,3.254,8.205,7.268,8.205h6.51
	c4.014,0,7.268-3.673,7.268-8.205l0,0c0-4.53-3.253-8.204-7.268-8.204h-6.51C264.484,166.591,261.23,170.265,261.23,174.795
	L261.23,174.795z"/>
<path opacity="0.3" fill="#FFFFFF" enable-background="new    " d="M234.23,482.795c0,4.532,3.254,8.205,7.268,8.205h9.51
	c4.014,0,7.268-3.673,7.268-8.205l0,0c0-4.53-3.254-8.204-7.268-8.204h-9.51C237.484,474.591,234.23,478.265,234.23,482.795
	L234.23,482.795z"/>
<path opacity="0.3" fill="#FFFFFF" enable-background="new    " d="M266.908,251h-27.017h-6.89h-27.016
	c-3.806,0-6.891,3.702-6.891,7.999c0,4.296,3.085,8.001,6.891,8.001h27.016h6.89h27.017c3.805,0,6.889-3.702,6.889-7.999
	C273.797,254.705,270.713,251,266.908,251z"/>
<path opacity="0.3" fill="#FFFFFF" enable-background="new    " d="M279.719,259.335c0,4.399,3.158,7.964,7.055,7.964h22.816
	c3.896,0,7.054-3.564,7.054-7.964l0,0c0-4.397-3.156-7.966-7.054-7.966h-22.816C282.877,251.369,279.719,254.938,279.719,259.335
	L279.719,259.335z"/>
<path opacity="0.3" fill="#FFFFFF" enable-background="new    " d="M203.23,389.145c0,4.399,3.158,7.965,7.054,7.965h22.817
	c3.896,0,7.054-3.564,7.054-7.965l0,0c0-4.396-3.157-7.965-7.054-7.965h-22.817C206.389,381.18,203.23,384.747,203.23,389.145
	L203.23,389.145z"/>
<path opacity="0.3" fill="#FFFFFF" enable-background="new    " d="M116.533,302.346c0,4.398,3.158,7.963,7.054,7.963h22.817
	c3.896,0,7.054-3.563,7.054-7.963l0,0c0-4.397-3.157-7.967-7.054-7.967h-22.817C119.691,294.379,116.533,297.947,116.533,302.346
	L116.533,302.346z"/>
<path opacity="0.3" fill="#FFFFFF" enable-background="new    " d="M434.074,174.796c0,4.399,3.158,7.964,7.055,7.964h22.817
	c3.896,0,7.054-3.564,7.054-7.964l0,0c0-4.397-3.158-7.966-7.054-7.966h-22.817C437.232,166.83,434.074,170.398,434.074,174.796
	L434.074,174.796z"/>
<path opacity="0.3" fill="#FFFFFF" enable-background="new    " d="M382.493,136.001c0,4.399,3.158,7.964,7.054,7.964h22.818
	c3.896,0,7.053-3.564,7.053-7.964l0,0c0-4.397-3.157-7.966-7.053-7.966h-22.818C385.651,128.035,382.493,131.604,382.493,136.001
	L382.493,136.001z"/>
<path opacity="0.3" fill="#FFFFFF" enable-background="new    " d="M353.03,174.796c0,4.399,3.157,7.964,7.054,7.964h59.818
	c3.896,0,7.053-3.564,7.053-7.964l0,0c0-4.397-3.157-7.966-7.053-7.966h-59.818C356.188,166.83,353.03,170.398,353.03,174.796
	L353.03,174.796z"/>
<path opacity="0.3" fill="#FFFFFF" enable-background="new    " d="M319.832,209H282l0,0h-25.048c-3.777,0-6.838,3.238-6.838,7.502
	s3.061,7.498,6.838,7.498H295l0,0h24.832c3.777,0,6.838-3.238,6.838-7.502S323.609,209,319.832,209z"/>
<path opacity="0.3" fill="#FFFFFF" enable-background="new    " d="M337.832,335H282l0,0h-25.048c-3.777,0-6.838,3.238-6.838,7.502
	s3.061,7.498,6.838,7.498H295l0,0h42.832c3.777,0,6.838-3.238,6.838-7.502S341.609,335,337.832,335z"/>
<path opacity="0.3" fill="#FFFFFF" enable-background="new    " d="M527.832,428H472l0,0h-25.048c-3.777,0-6.838,3.238-6.838,7.502
	s3.061,7.498,6.838,7.498H485l0,0h42.832c3.777,0,6.838-3.238,6.838-7.502S531.609,428,527.832,428z"/>
<path opacity="0.3" fill="#FFFFFF" enable-background="new    " d="M103.832,335H78l0,0H52.952c-3.777,0-6.838,3.238-6.838,7.502
	S49.175,350,52.952,350H91l0,0h12.832c3.777,0,6.838-3.238,6.838-7.502S107.609,335,103.832,335z"/>
</svg>
