<?xml version="1.0" encoding="utf-8"?>
<!-- Generator: Adobe Illustrator 16.0.0, SVG Export Plug-In . SVG Version: 6.00 Build 0)  -->
<!DOCTYPE svg PUBLIC "-//W3C//DTD SVG 1.1//EN" "http://www.w3.org/Graphics/SVG/1.1/DTD/svg11.dtd">
<svg version="1.1" id="Capa_1" xmlns="http://www.w3.org/2000/svg" xmlns:xlink="http://www.w3.org/1999/xlink" x="0px" y="0px"
	 width="48px" height="48px" viewBox="0 0 48 48" enable-background="new 0 0 48 48" xml:space="preserve">
<path display="none" fill="#FFFFFF" d="M15-8C2.85-8-7,1.85-7,14c0,12.15,9.85,22,22,22c12.15,0,22-9.85,22-22C37,1.85,27.15-8,15-8
	z M19.568,15H16v12h-5V15H9v-3h2V9.156C11,5.923,12.813,4,16.723,4H20v4h-2.057c-1.521,0-1.623,0.768-1.623,1.802L16.314,12H20
	L19.568,15z"/>
<g display="none">
	<path display="inline" fill="#FFFFFF" d="M15,17.695c2.039,0,3.697-1.658,3.697-3.695c0-0.805-0.262-1.548-0.701-2.156
		c-0.671-0.931-1.764-1.541-2.996-1.541c-1.233,0-2.325,0.61-2.996,1.541c-0.438,0.607-0.699,1.351-0.699,2.156
		C11.305,16.037,12.963,17.695,15,17.695z"/>
	<polygon display="inline" fill="#FFFFFF" points="23,9.479 23,5.919 22.57,5.921 19.492,5.93 19.479,9.49 	"/>
	<path display="inline" fill="#FFFFFF" d="M15-8C2.85-8-7,1.85-7,14c0,12.15,9.85,22,22,22c12.15,0,22-9.85,22-22
		C37,1.85,27.15-8,15-8z M25,20.441C25,22.68,23.68,25,21.441,25H8.559C6.321,25,4,22.68,4,20.441V7.559C4,5.32,6.321,4,8.559,4
		h12.882C23.68,4,25,5.32,25,7.559V20.441z"/>
	<path display="inline" fill="#FFFFFF" d="M20.742,14.078c0,3.166-2.575,5.703-5.742,5.703c-3.166,0-5.741-2.518-5.741-5.684
		C9.259,13.335,9.41,13,9.682,12H7v8.441C7,21.552,7.449,22,8.559,22h12.882C22.552,22,23,21.552,23,20.441V12h-2.682
		C20.588,13,20.742,13.316,20.742,14.078z"/>
</g>
<path fill="#FFFFFF" d="M24,2C11.85,2,2,11.85,2,24c0,12.15,9.85,22,22,22c12.15,0,22-9.85,22-22C46,11.85,36.15,2,24,2z
	 M30.518,19.502c-0.942,0.936-1.879,1.877-2.816,2.817c-0.065,0.064-0.139,0.123-0.182,0.199c-0.017,0.028,0.038,0.14,0.066,0.142
	c0.19,0.015,0.383,0.007,0.574,0.012c0.737,0.012,1.099,0.373,1.099,1.105c0.002,2.475-0.003,4.954,0.008,7.429
	c0.001,0.393-0.132,0.679-0.428,0.938c-1.746,1.524-3.48,3.063-5.222,4.595c-0.117,0.104-0.234,0.213-0.368,0.293
	c-0.292,0.165-0.636-0.015-0.684-0.347c-0.011-0.077-0.005-0.156-0.005-0.237c-0.005-1.259-0.012-2.521-0.018-3.78
	c-0.002-0.354-0.002-0.357-0.345-0.357c-1.092,0-2.184-0.014-3.276,0.015c-0.639,0.015-1.195-0.354-1.186-1.182
	c0.029-2.486,0.003-4.974,0.014-7.461c0.003-0.6,0.192-1.155,0.61-1.604c1.502-1.615,3.009-3.225,4.515-4.836
	c2.513-2.689,5.025-5.377,7.539-8.065c0.137-0.147,0.273-0.3,0.434-0.423c0.164-0.127,0.301-0.064,0.34,0.141
	c0.022,0.12,0.02,0.246,0.02,0.371c0.001,1.44,0.001,2.881,0.001,4.323c0,1.418-0.008,2.837,0.002,4.255
	C31.213,18.496,30.98,19.042,30.518,19.502z"/>
</svg>
