<?xml version="1.0" encoding="utf-8"?>
<!-- Generator: Adobe Illustrator 16.0.0, SVG Export Plug-In . SVG Version: 6.00 Build 0)  -->
<!DOCTYPE svg PUBLIC "-//W3C//DTD SVG 1.1//EN" "http://www.w3.org/Graphics/SVG/1.1/DTD/svg11.dtd">
<svg version="1.1" id="Capa_1" xmlns="http://www.w3.org/2000/svg" xmlns:xlink="http://www.w3.org/1999/xlink" x="0px" y="0px"
	 width="400px" height="80px" viewBox="0 0 400 80" enable-background="new 0 0 400 80" xml:space="preserve">
<g>
	<g>
		<path fill="#3B3B3B" d="M124.702,19.566l-6.548,8.16c-4.839-5.22-11.765-8.445-18.503-8.445c-13.282,0-23.72,10.248-23.72,23.341
			s10.438,23.436,23.72,23.436c6.642,0,13.474-3.036,18.503-7.875l6.642,7.402c-6.736,6.641-16.319,10.911-25.712,10.911
			c-19.452,0-34.538-14.707-34.538-33.779c0-18.881,15.276-33.398,34.917-33.398C108.855,9.318,118.249,13.209,124.702,19.566z"/>
		<path fill="#3B3B3B" d="M199.663,42.813c0,18.976-15.371,33.683-35.202,33.683c-19.83,0-35.201-14.707-35.201-33.683
			c0-19.072,15.371-33.494,35.201-33.494C184.292,9.318,199.663,23.836,199.663,42.813z M140.646,42.813
			c0,13.189,10.911,23.626,23.91,23.626c12.998,0,23.625-10.437,23.625-23.626c0-13.189-10.627-23.436-23.625-23.436
			C151.463,19.377,140.646,29.623,140.646,42.813z"/>
		<path fill="#3B3B3B" d="M233.496,9.508c19.925,0,34.348,13.947,34.348,33.209c0,19.165-14.518,33.209-34.632,33.209h-26.946V9.508
			H233.496z M217.461,65.868h16.321c12.903,0,22.771-9.584,22.771-23.057c0-13.568-10.152-23.245-23.246-23.245h-15.846V65.868z"/>
		<path fill="#3B3B3B" d="M285.841,19.566v17.932h23.7v10.058h-23.7v18.312h30.092v10.058h-41.288V9.508h47.441v10.059H285.841z"/>
		<path fill="#D8D8D8" d="M41.297,48.98v16.604h-7.116V48.98H17.387v-7.497h16.794V24.879h7.116v16.604h16.699v7.497H41.297z"/>
	</g>
	<g>
		<path fill="#9ECBCC" d="M321.106,75.926h18.353c2.815,0,5.099-2.283,5.099-5.099l0,0c0-2.816-2.283-5.098-5.099-5.098h-18.353"/>
		<path fill="#9ECBCC" d="M321.106,75.926h18.353c2.815,0,5.099-2.283,5.099-5.099l0,0c0-2.816-2.283-5.098-5.099-5.098h-18.353"/>
	</g>
	<path fill="#A084C4" d="M349.566,70.532c0,2.979,2.415,5.394,5.394,5.394h4.831c2.979,0,5.394-2.415,5.394-5.394l0,0
		c0-2.978-2.415-5.394-5.394-5.394h-4.831C351.981,65.139,349.566,67.554,349.566,70.532L349.566,70.532z"/>
	<path fill="#F1CE31" d="M315.798,47.548h25.164c2.823,0,5.111-2.289,5.111-5.113l0,0c0-2.823-2.288-5.112-5.111-5.112h-25.164
		V47.548z"/>
	<path fill="#9FCC8D" d="M350.468,42.558c0,2.891,2.345,5.235,5.236,5.235h21.675c2.892,0,5.234-2.344,5.234-5.235l0,0
		c0-2.891-2.343-5.235-5.234-5.235h-21.675C352.813,37.323,350.468,39.667,350.468,42.558L350.468,42.558z"/>
	<path fill="#EC786C" d="M328.497,19.657h27.873c2.803,0,5.075-2.272,5.075-5.075l0,0c0-2.803-2.272-5.075-5.075-5.075h-27.873
		V19.657z"/>
</g>
</svg>
