<?xml version="1.0" encoding="utf-8"?>
<!-- Generator: Adobe Illustrator 16.0.0, SVG Export Plug-In . SVG Version: 6.00 Build 0)  -->
<!DOCTYPE svg PUBLIC "-//W3C//DTD SVG 1.1//EN" "http://www.w3.org/Graphics/SVG/1.1/DTD/svg11.dtd">
<svg version="1.1" id="Layer_1" xmlns="http://www.w3.org/2000/svg" xmlns:xlink="http://www.w3.org/1999/xlink" x="0px" y="0px"
	 width="121px" height="42.5px" viewBox="0 0 121 42.5" enable-background="new 0 0 121 42.5" xml:space="preserve">
<g>
	<path fill="#3FB2C6" d="M62.34,18.228l-6.822-0.008v8.725c0,2.148,0.716,2.774,1.878,2.774c1.075,0,1.745-0.493,2.237-0.991
		l0.004,4.385c0,0-0.271,0.545-2.687,0.545c-3.535,0-5.951-1.791-5.951-6.801V18.22h-2.535v-3.803h2.535V8.843h4.52v5.574h6.839"/>
	<path fill="#3FB2C6" d="M29.482,23.813c0-5.593,4.473-9.798,10.155-9.798c5.728,0,10.112,4.205,10.112,9.798
		c0,5.595-4.385,9.799-10.112,9.799C33.955,33.611,29.482,29.407,29.482,23.813 M45.096,23.813c0-3.444-2.104-5.86-5.459-5.86
		c-3.356,0-5.502,2.416-5.502,5.86c0,3.446,2.146,5.906,5.502,5.906C42.993,29.719,45.096,27.259,45.096,23.813"/>
	<path fill="#3FB2C6" d="M62.832,14.408h4.521l-0.045,3.536c1.252-2.952,3.4-3.894,5.457-3.894c1.342,0,3.289,0.461,4.408,1.52
		c0,0-1.145,1.072-1.535,1.476c-0.602,0.622-1.375,1.876-1.375,1.876C73.547,18.563,72.9,18.3,71.873,18.3
		c-2.686,0-4.52,1.567-4.52,5.774v9.408h-4.521V18.069"/>
	<path fill="#3FB2C6" d="M73.621,23.813c0-5.593,4.477-9.798,10.156-9.798c5.725,0,10.109,4.205,10.109,9.798
		c0,5.595-4.385,9.799-10.109,9.799C78.098,33.611,73.621,29.407,73.621,23.813 M89.236,23.813c0-3.444-2.104-5.86-5.459-5.86
		c-3.357,0-5.504,2.416-5.504,5.86c0,3.446,2.146,5.906,5.504,5.906C87.133,29.719,89.236,27.259,89.236,23.813"/>
	<path fill="#3FB2C6" d="M92.459,29.719l3.088-2.149c1.162,1.656,2.906,2.419,5.057,2.419c2.281,0,3.309-0.763,3.309-2.015
		c0-1.521-1.387-1.743-4.563-2.64c-2.775-0.76-5.549-2.058-5.549-5.771c0-3.76,2.996-5.549,6.711-5.549
		c2.998,0,5.102,1.252,6.535,2.818l-2.641,2.595c-0.896-1.028-2.193-1.835-3.895-1.835c-1.697,0-2.637,0.627-2.637,1.746
		c0,1.432,1.162,1.744,4.115,2.505c2.951,0.763,6.174,1.925,6.174,5.905c0,3.224-1.971,5.862-7.295,5.862
		C96.574,33.611,93.711,31.731,92.459,29.719"/>
	<path fill="#3FB2C6" d="M28.907,23.962c-0.012-1.142,0.282-2.353,0.282-2.353h-5.63v-7.604h-4.528v7.604h-6.194v4.705h6.194v7.306
		h4.528v-7.306h5.63C29.189,26.314,28.92,25.138,28.907,23.962z"/>
</g>
</svg>
